<svg viewBox="0 0 181 144" fill="none" xmlns="http://www.w3.org/2000/svg">
    <path d="M39.3711 51.7143L8.62692 59.4193L16.332 90.1635L47.0761 82.4584L39.3711 51.7143Z" fill="#853EF3" />
    <path
        d="M27.825 81.75C25.89 81.75 23.985 81.225 22.29 80.205C19.815 78.72 18.06 76.365 17.37 73.56C15.915 67.785 19.44 61.905 25.23 60.45C31.005 58.995 36.885 62.52 38.34 68.31C39.045 71.115 38.61 74.01 37.125 76.485C35.64 78.96 33.285 80.715 30.48 81.405C29.595 81.645 28.71 81.75 27.825 81.75ZM27.855 61.575C27.105 61.575 26.34 61.665 25.575 61.86C20.565 63.12 17.52 68.205 18.765 73.215C19.38 75.645 20.895 77.685 23.04 78.975C25.185 80.265 27.705 80.64 30.135 80.025C32.565 79.41 34.605 77.895 35.895 75.75C37.185 73.605 37.56 71.085 36.945 68.655C35.865 64.425 32.04 61.575 27.855 61.575Z"
        fill="#FFDF57" />
    <path d="M62.04 0H35.745V26.295H62.04V0Z" fill="#FF98E1" />
    <path
        d="M53.685 20.055H44.085C43.68 20.055 43.365 19.74 43.365 19.335V6.85502C43.365 6.45002 43.68 6.13501 44.085 6.13501C44.49 6.13501 44.805 6.45002 44.805 6.85502V18.615H53.685C54.09 18.615 54.405 18.93 54.405 19.335C54.405 19.74 54.09 20.055 53.685 20.055Z"
        fill="white" />
    <path d="M145.807 22.9891L138.173 53.41L168.594 61.0443L176.228 30.6234L145.807 22.9891Z" fill="#00DA9F" />
    <path
        d="M162.78 51.705C162.72 51.705 162.66 51.705 162.6 51.69L148.335 48.105C148.05 48.03 147.84 47.805 147.795 47.505C147.75 47.205 147.885 46.935 148.14 46.785L165.09 36.645L151.095 33.135C150.705 33.045 150.48 32.64 150.57 32.265C150.66 31.875 151.065 31.65 151.44 31.74L167.13 35.67C167.415 35.745 167.625 35.97 167.67 36.27C167.715 36.57 167.58 36.84 167.325 36.99L150.375 47.13L162.945 50.28C163.335 50.37 163.56 50.775 163.47 51.15C163.395 51.48 163.095 51.705 162.78 51.705Z"
        fill="#FFDF57" />
    <path
        d="M131.805 14.16H121.005C120.6 14.16 120.285 13.845 120.285 13.44C120.285 13.035 120.615 12.72 121.005 12.72H131.805C132.21 12.72 132.525 13.035 132.525 13.44C132.525 13.845 132.21 14.16 131.805 14.16Z"
        fill="#853EF3" />
    <path
        d="M158.22 14.16H137.58C137.175 14.16 136.86 13.845 136.86 13.44C136.86 13.035 137.175 12.72 137.58 12.72H158.22C158.625 12.72 158.94 13.035 158.94 13.44C158.94 13.845 158.61 14.16 158.22 14.16Z"
        fill="#853EF3" />
    <path
        d="M137.085 25.815H127.485C127.08 25.815 126.765 25.485 126.765 25.095C126.765 24.69 127.095 24.375 127.485 24.375H137.085C137.49 24.375 137.805 24.69 137.805 25.095C137.805 25.485 137.49 25.815 137.085 25.815Z"
        fill="#853EF3" />
    <path
        d="M22.815 42.855H0.719998C0.314998 42.855 0 42.54 0 42.135C0 41.73 0.314998 41.415 0.719998 41.415H22.815C23.22 41.415 23.535 41.73 23.535 42.135C23.535 42.54 23.205 42.855 22.815 42.855Z"
        fill="#853EF3" />
    <path
        d="M18.255 33.735H0.719998C0.314998 33.735 0 33.42 0 33.015C0 32.61 0.314998 32.295 0.719998 32.295H18.24C18.645 32.295 18.96 32.61 18.96 33.015C18.96 33.42 18.645 33.735 18.255 33.735Z"
        fill="#853EF3" />
    <path
        d="M34.095 48.375C33.975 48.375 33.855 48.345 33.735 48.285C33.39 48.09 33.27 47.64 33.465 47.295L42.585 31.455C42.78 31.11 43.23 30.9899 43.575 31.1849C43.92 31.3799 44.04 31.83 43.845 32.175L34.725 48.015C34.59 48.255 34.335 48.375 34.095 48.375Z"
        fill="#853EF3" />
    <path
        d="M180.06 88.71H172.5C172.095 88.71 171.78 88.395 171.78 87.99C171.78 87.585 172.11 87.27 172.5 87.27H180.06C180.465 87.27 180.78 87.585 180.78 87.99C180.78 88.395 180.465 88.71 180.06 88.71Z"
        fill="#853EF3" />
    <path
        d="M3.87 70.68C3.075 69.72 2.265 68.76 1.47 67.8C0.87 67.08 -0.134998 68.115 0.450002 68.82C1.245 69.78 2.055 70.74 2.85 71.7C3.45 72.405 4.455 71.385 3.87 70.68Z"
        fill="#FFDF57" />
    <path
        d="M173.685 78.03C171.6 80.91 169.53 83.79 167.445 86.67C166.905 87.42 168.15 88.14 168.69 87.39C170.775 84.51 172.845 81.63 174.93 78.75C175.47 78 174.225 77.28 173.685 78.03Z"
        fill="#FFDF57" />
    <path
        d="M61.47 5.64C57.9 5.64 54.87 3.255 53.88 0H52.38C53.4 4.065 57.09 7.08 61.455 7.08C61.65 7.08 61.83 7.08 62.025 7.065V5.625C61.845 5.64 61.65 5.64 61.47 5.64Z"
        fill="white" />
    <path
        d="M142.59 125.655C142.5 125.265 142.125 125.025 141.735 125.1C141.63 125.115 141.54 125.16 141.465 125.22C140.43 123.795 138.795 121.53 138.075 120.375C132.99 112.14 128.565 103.62 123.105 95.61C120.285 91.47 118.365 86.895 114.87 83.325C113.58 82.005 110.94 81.855 109.95 80.235L106.74 82.965L88.38 74.895C86.595 78.18 83.595 78.84 80.67 81.51C76.125 88.515 71.34 97.74 66.42 104.49C65.46 106.215 64.455 107.91 63.435 109.59C63.39 109.59 63.33 109.59 63.285 109.59C62.895 109.65 62.625 110.01 62.67 110.4L66.54 136.68H67.305H67.995H143.535H143.79H145.02L142.59 125.655Z"
        fill="#201000" />
    <path
        d="M119.97 45.9C118.965 43.08 115.86 41.805 113.37 42.675C114.705 40.44 116.475 38.385 116.61 35.67C116.745 33.075 115.245 31.11 112.635 30.75C107.505 30.075 102.33 34.29 99.0749 38.52C98.1749 36.975 95.7749 36.045 93.6899 36.825C90.7949 37.905 88.5149 40.98 86.6849 43.29C84.3449 46.245 82.4249 49.44 80.8199 52.845C80.6099 53.295 80.8649 53.7 81.2099 53.865C81.2099 53.895 81.2099 53.91 81.2099 53.94C81.4349 55.89 83.6849 56.19 85.2299 56.37C89.8049 56.895 94.4549 57.03 99.0449 57.36C100.155 57.435 101.28 57.54 102.42 57.63C102.93 57.675 103.44 57.705 103.95 57.735C106.515 57.87 109.08 57.855 111.57 57.27C114.24 56.64 117.09 55.005 118.815 52.74C118.995 52.515 119.145 52.275 119.295 52.035C119.4 51.87 119.505 51.69 119.595 51.51C120.015 50.7 120.3 49.83 120.39 48.9C120.45 47.94 120.345 46.935 119.97 45.9Z"
        fill="#201000" />
    <path
        d="M82.3499 73.8301C83.5499 88.9501 91.4699 91.8301 100.59 92.3101C109.71 92.7901 114.51 87.9901 114.99 76.2301C115.47 64.4701 112.35 44.3851 94.8299 47.4151C82.2749 49.5901 81.6899 65.4451 82.3499 73.8301Z"
        fill="white" />
    <path
        d="M114.285 76.2C114.21 78 114.03 79.635 113.76 81.105C113.085 84.645 111.825 87.225 109.935 88.965C107.76 90.945 104.715 91.815 100.65 91.59C96.4349 91.365 92.34 90.645 89.16 88.11C85.965 85.575 83.685 81.225 83.085 73.77C82.53 66.78 82.575 50.265 94.98 48.135C96.12 47.94 97.215 47.835 98.25 47.835C101.67 47.835 104.58 48.885 106.965 50.97C112.455 55.785 114.36 65.7 114.36 74.085C114.33 74.79 114.315 75.51 114.285 76.2ZM107.895 49.875C104.445 46.86 100.02 45.78 94.71 46.695C81.135 49.035 81.045 66.48 81.63 73.875C81.645 74.085 81.66 74.295 81.69 74.505C81.87 76.41 82.155 78.12 82.545 79.65C85.32 90.6 93.075 92.625 100.56 93.03C100.995 93.06 101.415 93.06 101.82 93.06C105.675 93.06 108.645 92.055 110.895 90.015C112.845 88.245 114.195 85.695 114.975 82.32C115.38 80.535 115.635 78.51 115.725 76.245C115.74 75.72 115.77 75.045 115.77 74.25C115.785 68.385 114.915 56.055 107.895 49.875Z"
        fill="#201000" />
    <path
        d="M99.4049 72.42C99.2549 72.42 99.1199 72.375 98.9849 72.285C94.9349 69.405 95.1149 64.575 96.7799 57.21C96.8699 56.82 97.2599 56.58 97.6349 56.67C98.0249 56.76 98.2649 57.15 98.1749 57.525C96.3749 65.415 96.8099 68.97 99.8099 71.1C100.14 71.325 100.215 71.775 99.9749 72.105C99.8549 72.315 99.6299 72.42 99.4049 72.42Z"
        fill="#201000" />
    <path
        d="M96.405 75.1051C95.355 74.6551 94.275 74.7901 93.39 75.5101C93.09 75.7501 93.135 76.2751 93.39 76.5301C93.69 76.8301 94.11 76.7701 94.41 76.5301C94.74 76.2601 95.28 76.1701 95.685 76.3501C96.045 76.5001 96.4649 76.4551 96.6749 76.0951C96.8399 75.7801 96.765 75.2551 96.405 75.1051Z"
        fill="#201000" />
    <path
        d="M93.45 70.275C93.1799 69.78 92.715 69.435 92.145 69.375C91.17 69.255 90.3599 69.945 89.5499 70.35C87.3749 71.43 84.96 70.11 83.64 68.31C80.775 64.395 82.905 58.965 82.035 54.54C81.72 52.92 81.045 51.39 79.86 50.25C79.95 49.545 79.635 48.75 79.095 48.255C77.655 46.92 75.375 48 73.98 48.855C70.23 51.15 67.455 54.705 65.31 58.47C62.76 62.955 61.02 67.86 58.71 72.465C56.37 77.115 53.325 81.345 50.085 85.41C49.29 86.415 48.48 87.405 47.67 88.38C46.905 89.31 46.185 90.345 45.285 91.14C44.4 91.935 43.155 92.28 42.33 91.26C41.85 90.675 41.61 89.895 41.325 89.19C40.86 88.02 40.2 86.64 38.745 86.595C36.765 86.535 35.385 88.74 34.365 90.12C31.32 94.2 28.545 98.475 26.055 102.915C23.595 107.295 21.3 111.84 19.62 116.58C18.015 121.08 17.01 126.015 17.91 130.77C18.615 134.55 20.58 138.24 23.565 140.7C26.76 143.325 31.455 142.56 35.43 141.495C39.945 140.28 43.56 137.145 46.59 133.695C53.22 126.135 58.125 119.055 63.33 110.46C65.985 106.065 68.5499 101.625 71.1 97.185C73.6199 92.805 76.02 88.29 78.765 84.045C80.04 82.08 81.555 80.52 83.64 79.455C85.32 78.6 87.1199 78.015 88.8299 77.235C90.36 76.53 91.845 75.645 92.865 74.295C93.69 73.185 94.17 71.565 93.45 70.275Z"
        fill="white" />
    <path
        d="M55.785 79.2C57.75 76.41 59.1 73.725 60.345 70.545C61.14 68.505 61.305 66.15 62.205 64.215C62.265 64.08 62.34 63.93 62.415 63.795C58.335 63.39 55.47 61.59 48.66 67.11C43.605 73.74 39.285 80.895 35.145 88.125C37.935 89.085 40.845 91.545 43.95 94.11C47.85 89.715 52.38 84.015 55.785 79.2Z"
        fill="#201000" />
    <path d="M86.1899 49.575C88.5899 49.815 94.1099 51.255 92.4299 56.055C90.7499 60.855 86.1899 49.575 86.1899 49.575Z"
        fill="white" />
    <path
        d="M91.335 57.9749C89.055 57.9749 86.52 52.3049 85.53 49.8599C85.44 49.6199 85.47 49.3649 85.62 49.1549C85.77 48.9599 86.01 48.8549 86.265 48.8699C87.075 48.9449 91.155 49.4849 92.805 52.0649C93.57 53.2799 93.675 54.7049 93.12 56.3099C92.64 57.6749 91.905 57.9749 91.365 57.9749C91.35 57.9749 91.335 57.9749 91.335 57.9749ZM87.36 50.4899C88.83 53.8199 90.585 56.5349 91.32 56.5349C91.365 56.5349 91.545 56.4449 91.755 55.8299C92.175 54.6449 92.115 53.6699 91.59 52.8449C90.795 51.5849 89.01 50.8349 87.36 50.4899Z"
        fill="#201000" />
    <path
        d="M77.235 53.46L87.39 51.495C87.39 49.095 87.15 47.175 82.35 48.135L78.45 47.475C78.36 49.53 77.745 51.48 77.235 53.46Z"
        fill="white" />
    <path
        d="M83.3099 54.3749C83.2049 54.3749 83.0849 54.3449 82.9799 54.2999C82.7699 54.1949 82.62 53.9999 82.59 53.7599L81.87 48.9599C81.855 48.8699 81.8549 48.7799 81.8849 48.6899C81.7649 48.5849 81.675 48.4499 81.645 48.2849C81.57 47.8949 81.825 47.5199 82.215 47.4299C84.54 46.9649 86.0549 47.0999 86.9999 47.8799C88.0349 48.7199 88.1099 50.0699 88.1099 51.4949C88.1099 51.7649 87.96 52.0049 87.72 52.1249L83.64 54.2849C83.535 54.3449 83.4299 54.3749 83.3099 54.3749ZM83.295 48.7049C83.295 48.7199 83.2949 48.7349 83.3099 48.7499L83.8799 52.5449L86.67 51.0599C86.655 50.1599 86.5499 49.3799 86.0849 48.9899C85.6049 48.5999 84.675 48.5099 83.295 48.7049Z"
        fill="#201000" />
    <path
        d="M31.53 143.01C25.83 143.01 21.015 140.595 18.495 136.41C15.42 131.31 14.145 121.29 25.56 102.51C27.81 98.805 29.865 95.4 31.755 92.25C46.485 67.725 51.4499 59.475 62.3999 62.82C62.7749 62.94 63 63.345 62.8799 63.72C62.7599 64.095 62.3549 64.32 61.9799 64.2C52.1099 61.17 47.295 69.195 32.985 93C31.095 96.15 29.04 99.57 26.79 103.26C15.735 121.425 16.845 130.905 19.725 135.675C22.155 139.71 27.015 141.9 32.73 141.54C36.255 141.315 42.795 137.235 49.485 128.61C57.96 117.675 64.8749 106.575 68.9999 99.945C70.3649 97.755 71.4449 96.015 72.2549 94.8C73.9799 92.22 75.3899 89.37 76.6499 86.85C78.6149 82.905 80.0249 80.055 81.8549 79.395C84.5849 78.405 90.7349 75.36 92.265 72.3C92.7299 71.385 92.715 70.83 92.52 70.695C92.13 70.44 90.9149 70.725 90.09 71.655C89.835 71.955 89.3699 71.985 89.07 71.73C88.77 71.475 88.74 71.01 88.9949 70.71C90.225 69.315 92.1899 68.76 93.2999 69.495C93.7349 69.795 94.65 70.725 93.54 72.945C91.68 76.665 84.66 79.905 82.3349 80.745C81.06 81.21 79.5449 84.255 77.9249 87.48C76.6499 90.03 75.21 92.925 73.44 95.595C72.63 96.795 71.5649 98.52 70.1999 100.71C66.0599 107.37 59.13 118.5 50.595 129.495C44.475 137.385 37.485 142.68 32.79 142.98C32.385 142.995 31.95 143.01 31.53 143.01Z"
        fill="#201000" />
    <path
        d="M81.3899 74.07C87.8185 74.07 93.0299 68.8586 93.0299 62.43C93.0299 56.0015 87.8185 50.79 81.3899 50.79C74.9614 50.79 69.7499 56.0015 69.7499 62.43C69.7499 68.8586 74.9614 74.07 81.3899 74.07Z"
        fill="white" />
    <path
        d="M81.39 50.0551C79.845 50.0551 78.36 50.34 76.995 50.865C75.195 51.555 73.59 52.65 72.3 54.045C71.595 55.65 71.22 57.315 71.01 59.01C72.45 54.66 76.56 51.51 81.39 51.51C87.42 51.51 92.31 56.4151 92.31 62.4301C92.31 68.4451 87.405 73.35 81.39 73.35C76.755 73.35 72.78 70.44 71.19 66.345C71.01 65.865 70.845 65.37 70.74 64.845C70.725 66.075 70.71 67.305 70.65 68.52C70.815 68.82 70.995 69.1051 71.19 69.3751C73.425 72.6301 77.16 74.7751 81.39 74.7751C88.215 74.7751 93.75 69.225 93.75 62.415C93.75 55.605 88.215 50.0551 81.39 50.0551Z"
        fill="#201000" />
    <path
        d="M81.3899 71.07C86.1617 71.07 90.0299 67.2018 90.0299 62.43C90.0299 57.6583 86.1617 53.79 81.3899 53.79C76.6182 53.79 72.7499 57.6583 72.7499 62.43C72.7499 67.2018 76.6182 71.07 81.3899 71.07Z"
        fill="white" />
    <path
        d="M81.39 71.7899C76.23 71.7899 72.03 67.5899 72.03 62.4299C72.03 57.2699 76.23 53.0699 81.39 53.0699C86.55 53.0699 90.75 57.2699 90.75 62.4299C90.75 67.5899 86.55 71.7899 81.39 71.7899ZM81.39 54.4949C77.025 54.4949 73.47 58.0499 73.47 62.4149C73.47 66.7799 77.025 70.3349 81.39 70.3349C85.755 70.3349 89.31 66.7799 89.31 62.4149C89.31 58.0499 85.755 54.4949 81.39 54.4949Z"
        fill="#201000" />
    <path
        d="M92.91 61.35C92.7 61.35 92.505 61.26 92.355 61.095C92.1 60.795 92.13 60.33 92.445 60.075L97.125 56.115C97.395 55.89 97.8 55.89 98.07 56.13L102.57 60.09C102.87 60.36 102.9 60.81 102.63 61.11C102.375 61.41 101.91 61.44 101.61 61.17L97.575 57.615L93.375 61.17C93.24 61.29 93.075 61.35 92.91 61.35Z"
        fill="#201000" />
    <path
        d="M79.23 64.5899C79.05 64.5899 78.855 64.515 78.72 64.38C78.435 64.095 78.435 63.6449 78.72 63.3599L83.76 58.32C84.045 58.035 84.495 58.035 84.78 58.32C85.065 58.605 85.065 59.0549 84.78 59.3399L79.74 64.38C79.605 64.515 79.41 64.5899 79.23 64.5899Z"
        fill="#00DA9F" />
    <path
        d="M33.375 111.045C33.24 111.045 33.105 111.015 32.985 110.925C32.655 110.715 32.55 110.265 32.76 109.935C32.88 109.755 44.385 91.8 51.51 82.275C55.59 76.83 58.53 70.725 61.125 65.325C63.06 61.305 64.89 57.495 66.87 54.675C70.245 49.89 74.49 46.815 77.22 47.22C78.18 47.355 78.885 47.94 79.185 48.855C79.545 49.95 78.42 50.745 76.86 51.825C75.075 53.055 72.645 54.75 72 57.195C71.55 58.89 71.67 61.32 71.805 63.885C72.015 67.95 72.24 72.555 70.23 75.66C70.02 75.99 69.57 76.095 69.24 75.87C68.91 75.66 68.805 75.21 69.03 74.88C70.785 72.165 70.575 67.815 70.38 63.96C70.245 61.275 70.11 58.74 70.62 56.835C71.4 53.88 74.085 52.02 76.05 50.655C76.725 50.19 77.64 49.56 77.805 49.245C77.67 48.9 77.43 48.705 77.025 48.66C75.18 48.39 71.325 50.88 68.055 55.515C66.135 58.245 64.335 61.98 62.43 65.955C59.805 71.415 56.835 77.595 52.68 83.145C45.57 92.61 34.095 110.535 33.99 110.715C33.84 110.925 33.615 111.045 33.375 111.045Z"
        fill="#201000" />
    <path
        d="M82.59 51.255C82.185 51.255 81.87 50.94 81.87 50.535C81.87 49.53 81.78 48.795 81.345 48.435C80.79 47.97 79.47 47.955 77.445 48.36C77.055 48.435 76.68 48.18 76.59 47.79C76.515 47.4 76.77 47.025 77.16 46.935C79.74 46.425 81.315 46.53 82.26 47.31C83.22 48.105 83.31 49.38 83.31 50.52C83.31 50.94 82.995 51.255 82.59 51.255Z"
        fill="#201000" />
    <path
        d="M44.52 93.6899C42.645 91.0499 38.61 88.8449 35.46 87.4349C35.19 87.8399 34.92 88.2449 34.65 88.6499C37.665 89.9849 41.61 92.0999 43.35 94.5299C43.485 94.7249 43.71 94.8299 43.935 94.8299C44.085 94.8299 44.22 94.7849 44.355 94.6949C44.685 94.4699 44.76 94.0199 44.52 93.6899Z"
        fill="#201000" />
    <path
        d="M175.125 116.34C173.505 111.6 171.3 107.055 168.945 102.675C166.56 98.235 163.89 93.96 160.965 89.88C159.975 88.5 158.28 83.25 156.375 83.31C154.98 83.355 148.92 89.055 148.185 88.14C147.9 87.78 147.63 87.435 147.345 87.075C147.045 87.525 146.745 87.975 146.445 88.41C145.935 87.705 145.5 87.09 145.41 86.97C142.305 82.92 139.38 78.69 137.13 74.04C134.895 69.435 133.245 64.545 130.785 60.045C128.73 56.28 126.06 52.71 122.46 50.43C121.125 49.59 116.835 47.76 115.065 48.495C114.015 48.93 113.88 50.805 116.835 51.825C115.695 52.965 115.065 54.495 114.75 56.115C113.91 60.54 115.965 65.97 113.22 69.885C111.96 71.685 109.65 73.005 107.55 71.925C106.755 71.52 105.99 70.83 105.06 70.95C104.52 71.025 104.07 71.37 103.815 71.865C103.125 73.155 103.59 74.775 104.385 75.885C105.375 77.25 106.8 78.135 108.255 78.825C109.905 79.605 111.63 80.19 113.235 81.045C115.245 82.11 116.7 83.67 117.915 85.635C120.555 89.88 122.85 94.395 125.28 98.775C127.05 101.97 128.82 105.18 130.62 108.36C130.635 108.345 132.81 111.42 132.825 111.405C133.035 111.165 133.23 110.91 133.44 110.67C138.33 119.07 142.995 126.03 149.265 133.47C152.16 136.92 155.64 140.055 159.975 141.27C163.785 142.335 168.3 143.1 171.36 140.475C174.225 138 177.3 134.79 177.975 131.01C178.83 126.24 176.655 120.84 175.125 116.34Z"
        fill="white" />
    <path
        d="M157.65 83.9701C157.08 82.8751 156.42 81.8251 155.97 80.9851C154.56 78.3751 153.045 75.7951 151.41 73.3201C147.09 66.7801 140.505 61.5301 132.885 63.4351C133.815 65.0251 134.595 66.7351 135.33 68.4601C137.505 73.5451 139.935 78.1201 142.86 82.8151C144.465 85.3951 146.13 87.9451 147.81 90.4951C150.12 87.3151 153.99 85.4401 157.65 83.9701Z"
        fill="#201000" />
    <path
        d="M109.005 49.575C106.605 49.815 98.5049 54.2249 102.195 57.7349C104.085 59.5499 109.005 49.575 109.005 49.575Z"
        fill="white" />
    <path
        d="M102.72 58.68C102.33 58.68 101.985 58.53 101.685 58.26C100.305 56.955 100.395 55.59 100.71 54.675C101.775 51.555 107.07 49.035 108.93 48.855C109.2 48.84 109.44 48.945 109.59 49.155C109.74 49.365 109.755 49.65 109.65 49.89C108.69 51.84 105.36 58.23 103.005 58.65C102.9 58.665 102.81 58.68 102.72 58.68ZM107.61 50.715C105.6 51.51 102.72 53.31 102.075 55.155C101.82 55.92 102 56.58 102.69 57.225C103.35 57.375 105.51 54.63 107.61 50.715Z"
        fill="#201000" />
    <path d="M106.56 52.92L110.535 54.015L111.255 49.215L111.495 48.495C106.695 47.535 106.56 50.52 106.56 52.92Z"
        fill="white" />
    <path
        d="M110.535 54.735C110.475 54.735 110.4 54.72 110.34 54.705L106.365 53.61C106.05 53.52 105.84 53.235 105.84 52.92C105.84 51.57 105.84 49.53 107.235 48.39C108.21 47.595 109.65 47.385 111.645 47.79C111.855 47.835 112.02 47.955 112.125 48.135C112.23 48.315 112.245 48.525 112.185 48.72L111.96 49.38L111.255 54.12C111.225 54.33 111.105 54.51 110.94 54.615C110.805 54.705 110.67 54.735 110.535 54.735ZM107.28 52.38L109.935 53.115L110.535 49.11C110.535 49.095 110.535 49.08 110.535 49.08C109.44 48.96 108.63 49.095 108.12 49.515C107.445 50.07 107.31 51.165 107.28 52.38Z"
        fill="#201000" />
    <path
        d="M163.665 143.01C163.245 143.01 162.81 142.995 162.375 142.965C157.68 142.665 150.69 137.385 144.57 129.48C136.05 118.485 129.105 107.355 124.965 100.695C123.6 98.505 122.535 96.78 121.725 95.58C120.045 93.06 118.59 90.3 117.315 87.87C115.515 84.45 113.82 81.225 112.485 80.745C109.71 79.74 103.425 76.515 101.64 72.945C100.455 70.59 101.43 69.6 101.91 69.285C103.005 68.55 104.79 69.015 105.96 70.35C106.215 70.65 106.185 71.1 105.885 71.37C105.585 71.625 105.135 71.595 104.865 71.295C104.1 70.425 103.08 70.23 102.705 70.47C102.39 70.68 102.48 71.4 102.93 72.3C104.505 75.435 110.49 78.48 112.98 79.395C114.84 80.07 116.505 83.22 118.605 87.21C119.865 89.61 121.305 92.34 122.94 94.8C123.75 96.03 124.83 97.755 126.195 99.945C130.32 106.575 137.235 117.675 145.71 128.61C152.4 137.235 158.955 141.315 162.465 141.54C168.18 141.9 173.04 139.71 175.47 135.675C178.35 130.92 179.46 121.425 168.405 103.26C166.155 99.555 164.1 96.135 162.21 93C147.915 69.195 143.085 61.185 133.215 64.2C132.84 64.32 132.435 64.11 132.315 63.72C132.195 63.345 132.405 62.94 132.795 62.82C143.745 59.475 148.71 67.725 163.44 92.25C165.33 95.4 167.385 98.805 169.635 102.51C181.065 121.29 179.79 131.31 176.7 136.41C174.18 140.595 169.365 143.01 163.665 143.01Z"
        fill="#201000" />
    <path
        d="M115.155 47.5499C110.61 46.7099 110.025 48.4499 110.025 50.8049L113.73 53.2199C114.015 51.2999 114.57 49.4099 115.155 47.5499Z"
        fill="white" />
    <path
        d="M114.36 53.19C114.195 51.12 114.54 48.81 115.395 46.86C113.025 46.41 111.465 46.575 110.475 47.385C109.44 48.24 109.305 49.59 109.305 50.82C109.305 51.06 109.425 51.285 109.635 51.42L113.715 54.09C113.835 54.165 113.97 54.21 114.105 54.21C114.195 54.21 114.285 54.195 114.375 54.15C114.39 53.925 114.42 53.715 114.45 53.49C114.405 53.4 114.36 53.31 114.36 53.19ZM113.625 52.305L110.745 50.415C110.775 49.395 110.97 48.825 111.39 48.48C111.945 48.03 113.01 47.925 114.555 48.165L113.625 52.305Z"
        fill="#201000" />
    <path
        d="M113.805 74.07C120.234 74.07 125.445 68.8586 125.445 62.43C125.445 56.0015 120.234 50.79 113.805 50.79C107.376 50.79 102.165 56.0015 102.165 62.43C102.165 68.8586 107.376 74.07 113.805 74.07Z"
        fill="white" />
    <path
        d="M124.23 65.6549C124.2 65.7449 124.17 65.8499 124.14 65.9399C122.67 70.2449 118.59 73.3499 113.79 73.3499C107.76 73.3499 102.87 68.4449 102.87 62.4299C102.87 60.7499 103.26 59.1449 103.935 57.7199C105.69 54.0449 109.455 51.5099 113.79 51.5099C115.59 51.5099 117.285 51.9449 118.785 52.7249C121.455 54.1049 123.495 56.5649 124.32 59.5349C124.335 59.5949 124.35 59.6399 124.365 59.6999C124.26 57.6149 123.84 55.6049 122.655 53.8199C121.755 52.9049 120.72 52.1099 119.58 51.5099C118.155 50.7599 116.565 50.2649 114.87 50.1149C114.51 50.0849 114.15 50.0699 113.79 50.0699C108.675 50.0699 104.28 53.1899 102.405 57.6149C101.775 59.0999 101.43 60.7199 101.43 62.4299C101.43 69.2549 106.98 74.7899 113.79 74.7899C118.08 74.7899 121.86 72.5999 124.08 69.2699C124.155 69.1649 124.215 69.0599 124.29 68.9399C124.2 67.8749 124.2 66.7799 124.23 65.6549Z"
        fill="#201000" />
    <path
        d="M113.805 71.07C118.577 71.07 122.445 67.2018 122.445 62.43C122.445 57.6583 118.577 53.79 113.805 53.79C109.033 53.79 105.165 57.6583 105.165 62.43C105.165 67.2018 109.033 71.07 113.805 71.07Z"
        fill="white" />
    <path
        d="M113.805 71.7899C108.645 71.7899 104.445 67.5899 104.445 62.4299C104.445 57.2699 108.645 53.0699 113.805 53.0699C118.965 53.0699 123.165 57.2699 123.165 62.4299C123.165 67.5899 118.965 71.7899 113.805 71.7899ZM113.805 54.4949C109.44 54.4949 105.885 58.0499 105.885 62.4149C105.885 66.7799 109.44 70.3349 113.805 70.3349C118.17 70.3349 121.725 66.7799 121.725 62.4149C121.725 58.0499 118.17 54.4949 113.805 54.4949Z"
        fill="#201000" />
    <path
        d="M161.82 111.045C161.58 111.045 161.355 110.925 161.22 110.715C161.1 110.535 149.625 92.625 142.53 83.145C138.36 77.595 135.39 71.4151 132.78 65.9551C130.875 61.9801 129.075 58.245 127.155 55.515C123.72 50.64 118.26 48.195 115.995 48.66C115.335 48.795 115.26 49.125 115.23 49.245C115.155 49.605 115.815 49.8901 117.225 50.4001C119.55 51.2401 123.06 52.5001 124.575 56.7751C125.28 58.785 125.13 61.545 124.95 64.47C124.725 68.31 124.5 72.285 126.18 74.865C126.39 75.195 126.3 75.6451 125.97 75.8551C125.64 76.0651 125.19 75.975 124.98 75.645C123.045 72.675 123.285 68.4601 123.525 64.3801C123.69 61.6051 123.84 58.995 123.225 57.24C121.95 53.61 118.95 52.53 116.76 51.735C115.155 51.165 113.49 50.5651 113.85 48.9301C114.045 48.0451 114.705 47.43 115.725 47.235C118.785 46.605 124.71 49.515 128.34 54.675C130.32 57.495 132.15 61.29 134.085 65.325C136.68 70.725 139.62 76.83 143.7 82.275C150.84 91.785 162.345 109.755 162.45 109.935C162.66 110.265 162.57 110.715 162.225 110.925C162.09 111 161.955 111.045 161.82 111.045Z"
        fill="#201000" />
    <path
        d="M158.46 84.12C155.565 82.455 149.76 86.58 147.63 88.47C147.93 88.86 148.2 89.25 148.47 89.655C150.6 87.69 155.895 84.315 157.755 85.365C158.1 85.56 158.535 85.44 158.745 85.095C158.925 84.765 158.805 84.33 158.46 84.12Z"
        fill="#201000" />
    <path
        d="M110.205 64.5899C110.025 64.5899 109.83 64.515 109.695 64.38C109.41 64.095 109.41 63.6449 109.695 63.3599L114.735 58.32C115.02 58.035 115.47 58.035 115.755 58.32C116.04 58.605 116.04 59.0549 115.755 59.3399L110.715 64.38C110.565 64.515 110.385 64.5899 110.205 64.5899Z"
        fill="#00DA9F" />
</svg>