<svg xmlns="http://www.w3.org/2000/svg" fill="none" viewBox="0 0 299 263"><path fill="#FFDF57" d="M298.974 27.1322H137.292V205.159H298.974V27.1322Z"/><path fill="#fff" d="M288.078 37.3477H148.189V162.102H288.078V37.3477Z"/><path fill="#853EF3" d="M235.709 96.0755C227.964 98.6352 220.075 99.8378 212.727 100.224C208.579 100.445 204.607 100.411 200.922 100.224C187.638 99.5399 178.161 96.8258 178.161 96.8258C176.285 71.6264 183.049 53.5654 202.985 50.9396C225.14 48.0158 235.709 64.4881 235.709 96.0755Z"/><path fill="#201000" d="M256.892 155.146C256.826 155.146 256.759 155.135 256.693 155.113C256.417 155.003 256.285 154.694 256.395 154.429L270.12 119.697C270.186 119.532 270.33 119.41 270.506 119.377C270.54 119.366 274.037 118.616 276.177 118.053C277.159 117.799 277.777 117.391 278.009 116.84C278.318 116.089 277.832 115.24 277.832 115.24C277.755 115.118 277.744 114.964 277.777 114.82C277.821 114.677 277.91 114.567 278.042 114.501C280.072 113.463 279.829 112.084 279.708 111.687C279.52 111.08 279.068 110.716 278.759 110.749C278.538 110.782 278.318 110.661 278.218 110.462C278.119 110.264 278.152 110.021 278.307 109.856C279.002 109.139 279.774 108.112 279.52 107.307C279.267 106.491 277.998 106.071 277.523 105.972C277.303 105.928 277.126 105.751 277.104 105.52C277.071 105.299 277.192 105.078 277.391 104.979C277.402 104.968 278.792 104.262 279.013 103.17C279.123 102.629 278.903 102.044 278.384 101.437C276.994 99.8377 268.62 100.268 263.666 100.908C263.512 100.93 263.357 100.886 263.247 100.776C263.136 100.676 263.07 100.533 263.07 100.378C263.07 96.5609 262.585 90.1618 261.283 89.2571C261.173 89.1798 261.095 89.1688 260.963 89.224C260.135 89.5329 259.893 92.5339 259.672 95.1818C259.617 95.8658 259.562 96.583 259.496 97.3001C259.12 101.228 258.359 106.358 257.565 108.355C256.164 111.864 243.431 138.001 242.891 139.115C242.758 139.38 242.45 139.49 242.185 139.358C241.92 139.225 241.81 138.917 241.942 138.652C242.074 138.376 255.193 111.433 256.583 107.958C257.234 106.336 257.995 101.912 258.447 97.2008C258.514 96.4837 258.569 95.7776 258.624 95.0935C258.922 91.4306 259.131 88.7827 260.599 88.231C261.051 88.0655 261.503 88.1207 261.89 88.3855C263.842 89.7425 264.107 97.1788 264.129 99.7825C266.954 99.4516 277.17 98.4034 279.189 100.742C279.94 101.614 280.238 102.497 280.061 103.379C279.895 104.218 279.333 104.858 278.825 105.288C279.498 105.586 280.282 106.115 280.546 106.987C280.822 107.859 280.524 108.841 279.664 109.933C280.138 110.22 280.535 110.727 280.734 111.378C281.087 112.526 280.778 114.081 278.98 115.196C279.156 115.681 279.322 116.464 279.002 117.237C278.638 118.119 277.788 118.737 276.453 119.079C274.644 119.554 271.886 120.16 271.014 120.348L257.388 154.826C257.311 155.014 257.101 155.146 256.892 155.146Z"/><path fill="#201000" d="M270.628 106.623C269.017 106.623 267.671 106.458 267.196 105.983C266.766 105.553 266.159 104.549 266.589 103.501C267.274 101.835 270.142 100.985 275.383 100.93C275.383 100.93 275.383 100.93 275.394 100.93C275.681 100.93 275.923 101.162 275.923 101.449C275.923 101.746 275.692 101.978 275.405 101.989C269.017 102.066 267.803 103.357 267.582 103.909C267.318 104.571 267.947 105.233 267.958 105.244C268.553 105.84 273.684 105.553 278.108 104.913C278.406 104.869 278.671 105.067 278.704 105.365C278.748 105.652 278.549 105.928 278.251 105.961C276.828 106.171 273.342 106.623 270.628 106.623Z"/><path fill="#201000" d="M271.334 111.345C269.834 111.345 268.521 111.224 267.848 110.849C266.932 110.341 266.392 109.569 266.337 108.664C266.27 107.561 266.965 106.358 268.146 105.531C268.389 105.365 268.72 105.42 268.885 105.663C269.051 105.906 268.995 106.237 268.753 106.402C267.87 107.02 267.352 107.859 267.396 108.609C267.429 109.15 267.749 109.591 268.356 109.922C269.668 110.639 275.218 110.176 278.627 109.69C278.914 109.646 279.19 109.845 279.223 110.143C279.267 110.429 279.069 110.705 278.771 110.738C278.175 110.816 274.38 111.345 271.334 111.345Z"/><path fill="#201000" d="M272.073 116.012C270.76 116.012 269.568 115.902 268.884 115.571C267.648 114.986 266.876 114.092 266.755 113.11C266.655 112.239 267.086 111.367 267.957 110.672C268.189 110.485 268.52 110.529 268.696 110.76C268.884 110.992 268.84 111.323 268.608 111.5C268.2 111.831 267.726 112.349 267.792 112.989C267.858 113.596 268.421 114.192 269.314 114.611C270.837 115.328 276.243 114.721 278.207 114.423C278.494 114.379 278.77 114.578 278.814 114.865C278.858 115.151 278.659 115.427 278.372 115.471C277.876 115.549 274.72 116.012 272.073 116.012Z"/><path fill="#201000" d="M272.856 119.3C269.446 119.3 268.288 118.219 267.946 117.237C267.593 116.211 268.111 115.118 268.817 114.655C269.06 114.489 269.391 114.567 269.546 114.809C269.7 115.052 269.634 115.383 269.391 115.538C269.082 115.736 268.751 116.332 268.939 116.884C269.082 117.292 269.899 118.572 274.544 118.163C274.841 118.141 275.095 118.351 275.117 118.649C275.139 118.936 274.93 119.201 274.632 119.223C273.992 119.278 273.396 119.3 272.856 119.3Z"/><path fill="#201000" d="M264.803 112.592C264.726 112.592 264.649 112.581 264.582 112.537C264.318 112.415 264.207 112.095 264.329 111.831C267.561 105.001 263.424 100.908 263.247 100.742C263.038 100.544 263.027 100.202 263.236 99.9922C263.435 99.7826 263.777 99.7715 263.987 99.9701C264.031 100.014 268.863 104.736 265.289 112.283C265.189 112.482 265.002 112.592 264.803 112.592Z"/><path fill="#201000" d="M266.788 129.152C259.241 129.152 252.434 122.466 251.452 119.521C251.364 119.245 251.507 118.947 251.783 118.848C252.059 118.759 252.357 118.903 252.456 119.179C253.339 121.826 259.837 128.082 266.788 128.082C267.086 128.082 267.317 128.325 267.317 128.612C267.317 128.899 267.075 129.152 266.788 129.152Z"/><path fill="#201000" d="M198.341 67.8972C198.308 67.9193 198.275 67.9413 198.23 67.9634C198.197 67.9524 198.164 67.9413 198.131 67.9303C197.91 67.8751 197.723 67.9524 197.602 68.0958C197.535 68.0406 197.469 67.9965 197.381 67.9744C195.958 62.7779 189.205 64.9955 187.528 68.824C185.984 72.3214 187.032 76.205 186.26 79.8349C185.873 81.6443 185.123 83.3103 184.185 84.9211C183.568 85.9692 182.729 87.0284 182.983 88.3082C183.347 90.1066 185.377 90.8458 187.142 90.7355C189.912 90.559 192.548 88.8268 194.159 86.7967C195.924 84.568 193.894 80.0004 193.751 77.2863C193.597 74.2743 195.307 72.5642 197.348 70.0597C197.613 70.1259 197.877 69.9383 197.977 69.7066C198.054 69.5411 198.12 69.3756 198.197 69.2101C198.396 69.0446 198.628 68.9012 198.859 68.7578C199.455 68.4047 198.925 67.5552 198.341 67.8972Z"/><path fill="#201000" d="M214.957 68.6695C216.281 64.9624 218.4 54.1059 204.895 61.5201C191.391 68.9343 192.439 86.4105 200.659 88.5289C208.867 90.6472 214.957 68.6695 214.957 68.6695Z"/><path fill="#fff" d="M219.612 86.4216C218.697 89.3012 215.905 90.5258 212.86 91.0554L212.485 96.5609C208.414 96.8257 204.861 94.7956 201.275 94.6853C201.375 92.9752 201.485 91.0003 201.595 88.8047C198.815 87.4807 197.094 82.7145 197.094 82.7145C191.931 82.9793 186.767 80.5962 187.826 75.3003C188.577 71.5491 192.262 71.1188 194.954 71.7477C196.057 72.0125 196.995 72.4538 197.491 72.9172C197.491 72.9172 196.962 68.8902 203.052 66.2974C208.292 64.0577 212.033 64.3777 214.493 67.4779C215.398 68.6033 216.115 70.1148 216.689 71.9904C218.421 77.6834 220.539 83.5089 219.612 86.4216Z"/><path fill="#201000" d="M211.735 97.1236C209.672 97.1236 207.763 96.6051 205.91 96.1086C204.299 95.6783 202.776 95.2701 201.265 95.2149C201.121 95.2149 200.989 95.1487 200.89 95.0384C200.79 94.928 200.746 94.7957 200.757 94.6522C200.857 93.0304 200.956 91.1768 201.055 89.1137C198.727 87.7787 197.194 84.3805 196.741 83.2551C193.222 83.3544 190.177 82.2842 188.522 80.3755C187.33 78.9854 186.9 77.198 187.308 75.19C187.606 73.7226 188.323 72.6083 189.46 71.8801C191.49 70.5782 194.06 70.9865 195.075 71.2292C195.804 71.4057 196.465 71.6484 197.006 71.9353C197.238 70.4569 198.297 67.7317 202.843 65.7899C208.381 63.4289 212.331 63.8702 214.913 67.1249C215.85 68.3055 216.601 69.839 217.208 71.8139C217.45 72.6304 217.704 73.4358 217.958 74.2522C219.502 79.2171 220.97 83.9171 220.12 86.565C219.293 89.1468 217.086 90.7576 213.357 91.4858L213.015 96.583C212.993 96.8478 212.783 97.0574 212.518 97.0795C212.254 97.1126 212 97.1236 211.735 97.1236ZM201.839 94.1888C203.284 94.3102 204.696 94.6853 206.186 95.0825C208.05 95.579 209.959 96.1086 211.989 96.0534L212.331 91.0224C212.353 90.7796 212.53 90.5811 212.772 90.5369C216.314 89.9191 218.388 88.5179 219.116 86.2672C219.855 83.9282 218.377 79.184 216.954 74.5832C216.7 73.7778 216.446 72.9614 216.204 72.1449C215.652 70.3245 214.946 68.8681 214.096 67.809C211.823 64.9294 208.381 64.6094 203.273 66.7829C197.668 69.1771 198.01 72.7076 198.032 72.851C198.054 73.0717 197.944 73.2813 197.745 73.3917C197.547 73.491 197.304 73.4579 197.15 73.3144C196.708 72.9062 195.826 72.509 194.844 72.2773C193.012 71.847 191.214 72.0346 190.044 72.7848C189.162 73.3475 188.599 74.2302 188.356 75.4107C188.014 77.1098 188.345 78.5551 189.338 79.6915C190.817 81.4016 193.784 82.3615 197.083 82.196C197.304 82.1849 197.525 82.3284 197.613 82.549C197.635 82.5932 199.29 87.1277 201.85 88.3414C202.048 88.4296 202.159 88.6282 202.147 88.8489C202.026 90.8127 201.927 92.6111 201.839 94.1888Z"/><path fill="#201000" d="M213.919 80.1989C213.842 80.1989 213.765 80.1879 213.698 80.1438C213.434 80.0224 213.323 79.7024 213.445 79.4376C214.493 77.231 213.577 75.0245 209.958 71.0084C209.76 70.7878 209.782 70.4568 209.991 70.2582C210.212 70.0596 210.543 70.0817 210.741 70.2913C214.151 74.0646 215.839 76.8449 214.404 79.879C214.305 80.0886 214.118 80.1989 213.919 80.1989Z"/><path fill="#201000" d="M204.211 73.9763C204.576 73.9763 204.873 73.6799 204.873 73.3143C204.873 72.9487 204.576 72.6523 204.211 72.6523C203.845 72.6523 203.549 72.9487 203.549 73.3143C203.549 73.6799 203.845 73.9763 204.211 73.9763Z"/><path fill="#201000" d="M214.053 71.858C214.418 71.858 214.715 71.5616 214.715 71.196C214.715 70.8304 214.418 70.5341 214.053 70.5341C213.687 70.5341 213.391 70.8304 213.391 71.196C213.391 71.5616 213.687 71.858 214.053 71.858Z"/><path fill="#201000" d="M208.491 84.3694C207.167 84.7225 205.909 83.8288 205.854 82.4497C205.821 81.7656 204.762 81.7656 204.795 82.4497C204.894 84.5128 206.77 85.9251 208.778 85.3955C209.429 85.219 209.153 84.1929 208.491 84.3694Z"/><path fill="#201000" d="M204.42 69.7728C204.266 69.508 203.957 69.4529 203.692 69.5853C203.427 69.7177 203.162 69.8501 202.897 69.9714C202.644 70.0928 202.566 70.4679 202.71 70.6996C202.864 70.9644 203.173 71.0196 203.438 70.8872C203.703 70.7548 203.968 70.6224 204.232 70.501C204.486 70.3686 204.552 70.0045 204.42 69.7728Z"/><path fill="#201000" d="M212.993 67.2241H212.331C211.647 67.2241 211.647 68.2833 212.331 68.2833H212.993C213.677 68.2833 213.677 67.2241 212.993 67.2241Z"/><path fill="#201000" d="M196.697 78.7426C196.498 78.7426 196.311 78.6323 196.222 78.4447C195.803 77.5952 193.619 75.7306 191.897 76.0836C191.611 76.1388 191.335 75.9512 191.269 75.6644C191.213 75.3775 191.401 75.1017 191.688 75.0355C193.916 74.5832 196.542 76.7125 197.171 77.9703C197.304 78.2351 197.193 78.555 196.939 78.6764C196.862 78.7205 196.785 78.7426 196.697 78.7426Z"/><path fill="#201000" d="M202.754 67.1139C202.401 65.7237 201.088 66.0106 200.294 66.816C198.948 68.1731 198.087 70.0928 197.58 71.9132C197.514 72.167 197.613 72.3546 197.778 72.4649C197.668 72.4869 197.569 72.5311 197.47 72.5532C196.797 72.6855 197.083 73.7006 197.756 73.5792C200.393 73.0607 203.516 70.0928 202.754 67.1139Z"/><path fill="#fff" d="M177.886 91.1989C177.931 93.0303 178.019 94.906 178.162 96.8367C178.162 96.8367 187.651 99.5508 200.923 100.235C204.608 100.422 208.58 100.467 212.729 100.235C220.077 99.8377 227.954 98.6461 235.71 96.0865C235.71 94.3322 235.677 92.6442 235.611 90.9782C212.221 98.9551 180.534 92.4787 177.886 91.1989Z"/><path fill="#201000" d="M206.947 100.919C204.95 100.919 202.931 100.864 200.89 100.764C187.705 100.091 178.107 97.3774 178.007 97.3443C177.798 97.2781 177.643 97.0905 177.621 96.8698C175.547 68.9454 184.285 52.8813 202.909 50.421C211.592 49.2735 218.719 51.0719 224.081 55.772C232.146 62.8441 236.228 76.4037 236.228 96.0865C236.228 96.3182 236.085 96.5168 235.864 96.594C228.814 98.922 221.036 100.334 212.75 100.776C210.852 100.864 208.911 100.919 206.947 100.919ZM178.658 96.4175C180.501 96.9029 189.305 99.0985 200.945 99.6943C204.939 99.9039 208.9 99.9039 212.695 99.6943C220.749 99.264 228.318 97.918 235.169 95.6893C235.114 76.5361 231.153 63.3737 223.375 56.5553C218.256 52.0649 211.415 50.3548 203.041 51.4581C180.49 54.448 177.301 77.4739 178.658 96.4175Z"/><path fill="#201000" d="M206.947 100.919C204.95 100.919 202.931 100.864 200.89 100.764C187.706 100.091 178.107 97.3774 178.008 97.3443C177.798 97.2781 177.643 97.0905 177.621 96.8699C177.478 95.0163 177.39 93.1186 177.346 91.2099C177.346 91.0224 177.434 90.8569 177.588 90.7576C177.743 90.6583 177.941 90.6473 178.107 90.7245C180.821 92.0374 212.397 98.3372 235.423 90.4818C235.578 90.4266 235.754 90.4487 235.898 90.548C236.041 90.6473 236.118 90.8017 236.129 90.9672C236.195 92.7325 236.229 94.4095 236.229 96.0975C236.229 96.3292 236.085 96.5278 235.864 96.6051C228.814 98.933 221.036 100.345 212.75 100.787C210.853 100.864 208.911 100.919 206.947 100.919ZM178.658 96.4175C180.501 96.903 189.305 99.0985 200.945 99.6943C204.939 99.9039 208.9 99.9039 212.695 99.6943C220.749 99.264 228.318 97.918 235.169 95.6893C235.169 94.3764 235.136 93.0635 235.092 91.6954C213.225 98.8448 184.076 93.6924 178.427 91.9491C178.482 93.4607 178.548 94.9612 178.658 96.4175Z"/><path fill="#fff" d="M230.217 74.4397C230.007 73.7888 228.981 74.0646 229.191 74.7266C229.952 77.0987 230.305 79.5149 230.228 81.9973C230.206 82.6814 231.265 82.6814 231.287 81.9973C231.364 79.4156 231.011 76.9001 230.217 74.4397Z"/><path fill="#201000" d="M161.887 155.146C161.6 155.146 161.369 154.914 161.358 154.628C161.358 154.462 161.016 137.582 162.064 119.41C163.134 100.809 176.881 99.1537 177.014 99.1316C177.08 99.1206 177.157 99.1316 177.223 99.1537C182.265 100.632 208.833 107.583 236.559 98.58C236.647 98.5579 236.724 98.5469 236.812 98.5579C236.912 98.58 246.378 100.422 247.183 111.621C247.514 116.189 247.889 123.382 247.889 128.612C247.889 128.91 247.658 129.141 247.36 129.141C247.062 129.141 246.83 128.91 246.83 128.612C246.83 123.404 246.455 116.244 246.124 111.698C245.429 101.89 237.871 99.8708 236.746 99.6281C226.199 103.037 215.817 104.163 206.703 104.163C191.831 104.163 180.345 101.162 177.025 100.202C175.723 100.378 164.105 102.419 163.112 119.476C162.064 137.615 162.406 154.44 162.406 154.617C162.417 154.914 162.185 155.146 161.887 155.157C161.898 155.146 161.898 155.146 161.887 155.146Z"/><path fill="#201000" d="M177.433 155.146C177.135 155.146 176.903 154.903 176.903 154.616V126.857C176.903 126.56 177.135 126.328 177.433 126.328C177.731 126.328 177.962 126.56 177.962 126.857V154.616C177.962 154.903 177.72 155.146 177.433 155.146Z"/><path fill="#201000" d="M235.059 155.146C234.783 155.146 234.551 154.936 234.529 154.65L232.091 121.242C232.069 120.955 232.29 120.701 232.577 120.679C232.885 120.668 233.117 120.878 233.139 121.164L235.577 154.572C235.6 154.859 235.379 155.113 235.092 155.135C235.081 155.146 235.07 155.146 235.059 155.146Z"/><path fill="#201000" d="M188.378 126.151C184.384 126.151 181.14 122.908 181.14 118.914C181.14 114.92 184.384 111.676 188.378 111.676C192.372 111.676 195.615 114.92 195.615 118.914C195.615 122.897 192.372 126.151 188.378 126.151ZM188.378 112.724C184.968 112.724 182.199 115.493 182.199 118.903C182.199 122.312 184.968 125.081 188.378 125.081C191.787 125.081 194.556 122.312 194.556 118.903C194.556 115.493 191.787 112.724 188.378 112.724Z"/><path fill="#201000" d="M209.925 155.146C209.638 155.146 209.406 154.925 209.395 154.639C208.667 131.867 207.84 104.604 208.005 104.085C208.093 103.81 208.391 103.655 208.678 103.754C208.932 103.843 209.075 104.096 209.031 104.35C208.932 105.696 209.914 137.769 210.454 154.605C210.465 154.892 210.234 155.146 209.947 155.157C209.936 155.146 209.925 155.146 209.925 155.146Z"/><path fill="#201000" d="M210.101 110.429C210.035 110.429 209.98 110.418 209.925 110.396C209.759 110.341 209.638 110.209 209.594 110.043L208.005 104.394C207.95 104.185 208.016 103.964 208.182 103.832C208.347 103.699 208.579 103.677 208.766 103.776L214.239 106.777C214.404 106.866 214.503 107.031 214.514 107.219C214.525 107.406 214.437 107.583 214.283 107.682L210.399 110.33C210.311 110.396 210.201 110.429 210.101 110.429ZM209.362 105.321L210.41 109.05L212.97 107.307L209.362 105.321Z"/><path fill="#201000" d="M182.904 123.15C182.772 123.15 182.65 123.106 182.54 123.007C182.33 122.808 182.308 122.477 182.507 122.257L191.333 112.724C191.532 112.504 191.863 112.493 192.083 112.691C192.304 112.89 192.315 113.221 192.116 113.441L183.29 122.974C183.191 123.084 183.047 123.15 182.904 123.15Z"/><path fill="#201000" d="M177.079 100.191C176.87 100.191 176.671 100.058 176.583 99.8598C176.197 98.8668 176.186 98.0393 176.55 97.3773C177.046 96.5057 178.017 96.3292 178.061 96.3182C178.348 96.263 178.624 96.4616 178.668 96.7485C178.723 97.0353 178.525 97.3112 178.238 97.3553C178.216 97.3553 177.697 97.4656 177.466 97.8959C177.212 98.3482 177.377 98.9992 177.565 99.4626C177.675 99.7384 177.543 100.047 177.267 100.147C177.212 100.18 177.146 100.191 177.079 100.191Z"/><path fill="#201000" d="M236.723 99.6171C236.635 99.6171 236.547 99.595 236.459 99.5509C236.205 99.4074 236.117 99.0875 236.26 98.8227C236.481 98.4365 236.547 98.0724 236.448 97.7194C236.249 97.0022 235.455 96.5499 235.444 96.5499C235.19 96.4065 235.091 96.0865 235.234 95.8327C235.377 95.579 235.697 95.4797 235.951 95.6231C235.995 95.6452 237.132 96.2851 237.463 97.4436C237.639 98.0724 237.54 98.7124 237.176 99.3633C237.088 99.5178 236.9 99.6171 236.723 99.6171Z"/><path fill="#201000" d="M177.267 129.108C177.278 129.031 177.3 128.965 177.333 128.91L162.891 119.002C162.648 118.836 162.317 118.903 162.152 119.134C161.986 119.377 162.052 119.708 162.284 119.874L177.168 130.09C177.212 129.759 177.234 129.439 177.267 129.108Z"/><path fill="#201000" d="M233.602 128.358C233.459 128.358 233.315 128.303 233.205 128.181C233.007 127.961 233.029 127.63 233.249 127.431L246.301 115.78C246.522 115.582 246.853 115.604 247.052 115.824C247.25 116.045 247.228 116.376 247.007 116.575L233.955 128.226C233.856 128.314 233.735 128.358 233.602 128.358Z"/><path fill="#201000" d="M168.782 137.096H161.898C161.887 137.096 161.876 137.096 161.865 137.096C161.809 137.438 161.787 137.791 161.776 138.133C161.82 138.144 161.854 138.144 161.898 138.144H168.253V147.147H162.416C162.118 147.147 161.887 147.39 161.887 147.677C161.887 147.975 162.118 148.206 162.416 148.206H168.771C169.069 148.206 169.301 147.964 169.301 147.677V137.615C169.312 137.328 169.069 137.096 168.782 137.096Z"/><path fill="#201000" d="M165.594 140.803H161.711C161.7 140.803 161.689 140.803 161.677 140.803C161.677 141.156 161.677 141.509 161.666 141.851C161.677 141.851 161.7 141.851 161.711 141.851H165.594C165.892 141.851 166.124 141.609 166.124 141.322C166.124 141.046 165.892 140.803 165.594 140.803Z"/><path fill="#201000" d="M165.594 143.275H161.711C161.7 143.275 161.677 143.275 161.666 143.275C161.666 143.628 161.666 143.981 161.677 144.323C161.689 144.323 161.7 144.323 161.711 144.323H165.594C165.892 144.323 166.124 144.091 166.124 143.793C166.124 143.495 165.892 143.275 165.594 143.275Z"/><path fill="#853EF3" d="M288.077 36.137H148.189C147.508 36.137 146.978 36.6919 146.978 37.3477V162.102C146.978 162.758 147.508 163.313 148.189 163.313H288.077C288.733 163.313 289.288 162.758 289.288 162.102V37.3477C289.288 36.6666 288.733 36.137 288.077 36.137ZM286.867 160.892H149.399V38.5584H286.867V160.892Z"/><path fill="#201000" d="M217.143 132.764C217.253 131.935 216.671 131.174 215.842 131.064C215.014 130.954 214.252 131.536 214.142 132.364C214.032 133.193 214.614 133.954 215.443 134.064C216.271 134.175 217.032 133.592 217.143 132.764Z"/><path fill="#853EF3" d="M229.533 184.097H164.936C164.255 184.097 163.726 183.567 163.726 182.886C163.726 182.205 164.255 181.676 164.936 181.676H229.533C230.214 181.676 230.744 182.205 230.744 182.886C230.744 183.567 230.189 184.097 229.533 184.097Z"/><path fill="#FF98E1" d="M258.39 16.5384C261.064 16.5384 263.233 14.3702 263.233 11.6955C263.233 9.02089 261.064 6.85266 258.39 6.85266C255.715 6.85266 253.547 9.02089 253.547 11.6955C253.547 14.3702 255.715 16.5384 258.39 16.5384Z"/><path fill="#FF98E1" d="M275.944 16.5384C278.619 16.5384 280.787 14.3702 280.787 11.6955C280.787 9.02089 278.619 6.85266 275.944 6.85266C273.27 6.85266 271.101 9.02089 271.101 11.6955C271.101 14.3702 273.27 16.5384 275.944 16.5384Z"/><path fill="#F76567" d="M293.526 16.5384C296.2 16.5384 298.369 14.3702 298.369 11.6955C298.369 9.02089 296.2 6.85266 293.526 6.85266C290.851 6.85266 288.683 9.02089 288.683 11.6955C288.683 14.3702 290.851 16.5384 293.526 16.5384Z"/><path fill="#fff" d="M290.297 167.954C265.831 167.954 244.92 183.467 236.899 205.184H239.497C247.418 184.854 267.193 170.376 290.323 170.376C293.274 170.376 296.174 170.603 298.999 171.057V168.61C296.149 168.181 293.248 167.954 290.297 167.954Z"/><path fill="#FF98E1" d="M119.359 14.3186C118.023 12.1746 116.661 10.0054 115.324 7.86142C114.491 6.54981 112.398 7.76052 113.23 9.07214C114.567 11.2161 115.929 13.3853 117.266 15.5293C118.073 16.8662 120.167 15.6554 119.359 14.3186Z"/><path fill="#FF98E1" d="M123.396 7.86145C122.059 5.44001 120.697 3.01856 119.36 0.59712C118.604 -0.764941 116.51 0.445784 117.267 1.80784C118.604 4.22929 119.966 6.65072 121.303 9.07216C122.059 10.4594 124.153 9.22351 123.396 7.86145Z"/><path fill="#FFDF57" d="M1.21286 151.786C1.03629 151.786 0.859735 151.735 0.683172 151.66C0.0778114 151.357 -0.174425 150.651 0.128255 150.045L10.6212 128.252C10.9238 127.647 11.6301 127.395 12.2355 127.698C12.8408 128 13.0931 128.706 12.7904 129.312L2.29746 151.105C2.09568 151.534 1.66688 151.786 1.21286 151.786Z"/><path fill="#FF98E1" d="M253.371 223.067C251.48 226.018 249.613 228.994 247.721 231.946C246.889 233.257 244.795 232.046 245.628 230.735C247.519 227.784 249.386 224.807 251.278 221.856C252.135 220.519 254.229 221.73 253.371 223.067Z"/><path fill="#201000" d="M78.3476 76.242C78.2467 74.6781 77.8936 73.316 77.3639 72.181C73.8831 64.6644 62.4821 65.5977 56.9078 71.7774C51.7622 77.4779 50.8794 85.4485 49.4164 92.6623C48.2562 98.3628 46.1879 102.726 43.5646 107.822C42.2278 110.42 40.8657 113.118 40.7144 116.095C40.109 129.11 56.7817 130.825 63.8694 122.628C68.5862 117.179 68.7627 109.89 67.6025 103.155C67.5772 103.054 67.5772 102.953 67.552 102.878C67.4763 102.399 67.3755 101.945 67.2998 101.465C67.1989 100.986 67.098 100.507 66.9971 100.028C66.2908 96.572 65.5341 93.0407 65.9882 89.5599C66.0891 88.8284 66.2404 88.1222 66.417 87.4663C66.6692 86.634 66.9719 85.8773 67.3502 85.1206C68.5862 82.6487 70.5284 80.6308 72.7228 78.8652C73.1264 78.5373 73.5299 78.2094 73.9335 77.9067C74.2614 77.6545 74.6145 77.4022 74.9424 77.15C75.0181 77.0995 75.0938 77.0491 75.1695 76.9987C75.4217 76.8221 75.6739 76.6455 75.9262 76.469C75.9262 76.4942 75.9262 76.4942 75.9262 76.5194C76.0523 78.058 78.4485 77.8058 78.3476 76.242Z"/><path fill="#201000" d="M119.916 71.0963C129.324 62.2682 125.667 47.5378 114.114 50.5141C102.562 53.4652 77.9944 63.8068 74.7154 78.1337C71.4363 92.4605 66.8205 108.856 82.5346 113.976C98.2487 119.046 119.916 71.0963 119.916 71.0963Z"/><path fill="#fff" d="M128.921 115.035C126.424 121.467 119.891 123.889 112.854 124.671L107.582 144.975C107.582 144.975 103.37 156.225 97.7197 169.947C89.9761 155.14 81.6524 142.251 81.6524 142.251C81.6524 142.251 83.0649 135.113 87.5042 117.961C81.3497 114.556 78.0707 103.433 78.0707 103.433C66.2409 103.306 54.7895 97.152 57.9425 85.2213C60.1873 76.7463 68.6371 76.2923 74.6908 78.1084C77.1626 78.8651 79.2562 80.0001 80.3408 81.1352C80.3408 81.1352 79.685 71.8782 93.9614 66.8083C106.245 62.4447 114.745 63.6806 119.916 71.0963C121.808 73.7952 123.271 77.3265 124.305 81.7153C127.433 94.9323 131.443 108.528 128.921 115.035Z"/><path fill="#201000" d="M126.852 87.088C126.675 86.3817 126.524 85.7007 126.347 84.9944C126.271 84.6665 126.171 84.3134 126.095 83.9855C125.363 84.3638 124.581 84.6665 123.8 84.8179C123.9 85.2214 124.001 85.625 124.102 86.0034C124.228 86.5583 124.38 87.1132 124.506 87.6429C127.129 98.3124 129.828 109.36 127.81 114.607C125.843 119.651 120.924 122.552 112.752 123.485C112.247 123.536 111.844 123.889 111.718 124.393L106.446 144.648C106.32 145.001 105.614 146.867 104.478 149.793C102.889 153.905 100.468 160.11 97.5925 167.122C96.4827 165.028 95.3728 163.01 94.263 161.043C90.7318 154.737 87.4527 149.289 85.2835 145.783C84.1485 143.967 83.3413 142.655 82.9377 142.024C82.963 141.848 83.0134 141.621 83.0891 141.369C83.19 140.889 83.3161 140.259 83.4926 139.477C83.6188 138.947 83.7449 138.317 83.9214 137.61C84.8043 133.726 86.3177 127.42 88.6887 118.289C88.84 117.76 88.5878 117.205 88.1085 116.927C86.9987 116.322 85.9898 115.414 85.0565 114.354C81.3234 110.041 79.2804 103.206 79.2551 103.13C79.1038 102.626 78.6498 102.272 78.1201 102.272C75.9004 102.247 73.7312 102.02 71.7386 101.566C70.0738 101.213 68.4848 100.709 67.0723 100.078C64.3986 98.9177 62.2294 97.3539 60.7916 95.4621C58.6981 92.7128 58.1432 89.3833 59.1521 85.5493C59.8584 82.9009 61.2709 80.9587 63.3644 79.7984C65.7859 78.4616 69.2162 78.1337 72.7727 78.8904C73.3024 79.0165 73.8573 79.1426 74.387 79.2939C74.4123 79.2939 74.4375 79.3192 74.4627 79.3192C76.6319 80.0002 78.5741 81.0091 79.5074 81.9928C79.8605 82.3712 80.4154 82.4721 80.8694 82.2703C81.0208 82.1946 81.1721 82.0937 81.2982 81.9676C81.5 81.7406 81.6261 81.4127 81.6009 81.0848C81.6009 81.0091 81.273 74.5772 90.1768 69.8352C91.4128 69.1794 92.8253 68.5488 94.4144 67.9687C106.37 63.7059 114.164 64.9419 118.957 71.8278C119.083 72.0296 119.209 72.2062 119.36 72.408C119.94 73.316 120.47 74.325 120.975 75.4096H123.623C122.841 73.5178 121.958 71.8783 120.949 70.4153C120.899 70.3649 120.874 70.2892 120.823 70.2388C115.375 62.5961 106.471 61.0827 93.6072 65.6733C92.4469 66.0769 91.3623 66.5309 90.3786 66.985C82.3576 70.7432 80.0623 75.8888 79.4317 78.8651C79.0281 78.6129 78.5993 78.3859 78.1453 78.1589C77.2625 77.7301 76.2788 77.3265 75.2446 77.0238C75.1942 77.0238 75.1689 76.9986 75.1185 76.9986H75.0933C72.798 76.3176 67.0218 75.0312 62.2294 77.7049C59.5305 79.2183 57.7396 81.6397 56.8568 84.9692C55.6713 89.4842 56.3776 93.646 58.8999 96.9755C60.8925 99.5735 63.9193 101.617 67.6524 102.953C69.1153 103.483 70.6792 103.887 72.3439 104.189C73.9078 104.467 75.5473 104.643 77.2373 104.694C77.7922 106.384 79.2299 110.193 81.5 113.623C82.7864 115.565 84.325 117.356 86.1663 118.592C84.2493 126.008 82.9125 131.506 82.0297 135.315C81.9036 135.87 81.7775 136.374 81.6766 136.854C81.5 137.61 81.3487 138.266 81.2225 138.871C80.9955 139.88 80.8442 140.637 80.7181 141.167C80.592 141.797 80.5163 142.1 80.5163 142.1C80.4659 142.403 80.5163 142.731 80.6929 142.983C80.6929 143.008 80.8442 143.21 81.0712 143.563C82.736 146.186 89.748 157.31 96.3313 169.846C96.4575 170.098 96.5836 170.35 96.7097 170.602C96.8106 170.779 96.9367 170.93 97.088 171.031C97.2898 171.183 97.5421 171.258 97.7943 171.258H97.8447C98.0465 171.258 98.2483 171.183 98.4249 171.082C98.5005 171.031 98.5762 170.981 98.6519 170.905C98.7528 170.804 98.8537 170.678 98.9041 170.527C99.005 170.275 99.1059 170.022 99.2068 169.795C99.3581 169.392 99.5347 168.988 99.686 168.61C102.637 161.421 105.134 155.014 106.774 150.777C107.556 148.734 108.136 147.22 108.464 146.338C108.666 145.833 108.766 145.556 108.766 145.53C108.792 145.48 108.792 145.455 108.817 145.404L109.195 143.941L110.078 140.511L110.532 138.796L113.887 125.907C118.225 125.352 121.706 124.217 124.405 122.502C127.104 120.786 128.996 118.491 130.105 115.59C132.35 109.537 129.677 98.6403 126.852 87.088Z"/><path fill="#201000" d="M116.865 100.053C116.663 100.053 116.461 100.002 116.285 99.9013C115.705 99.5734 115.478 98.842 115.806 98.2618C118.505 93.3685 116.739 88.2229 109.021 78.5624C108.592 78.0327 108.693 77.276 109.222 76.8724C109.752 76.4436 110.509 76.5445 110.912 77.0742C118.151 86.1546 121.632 92.7379 117.924 99.4725C117.723 99.8257 117.294 100.053 116.865 100.053Z"/><path fill="#201000" d="M99.1063 74.1735C98.8036 73.543 98.0974 73.3916 97.4668 73.6439C96.8362 73.8961 96.2056 74.1735 95.6003 74.4258C94.9949 74.678 94.7931 75.5104 95.0706 76.0653C95.3733 76.6959 96.0795 76.8472 96.7101 76.595C97.3407 76.3427 97.9713 76.0653 98.5766 75.8131C99.182 75.5608 99.3838 74.7285 99.1063 74.1735Z"/><path fill="#201000" d="M123.296 73.6943L120.496 73.8456C118.932 73.8709 118.983 76.2923 120.547 76.2671L123.346 76.1157C124.91 76.0905 124.86 73.6691 123.296 73.6943Z"/><path fill="#201000" d="M77.7926 94.3271C77.3133 94.3271 76.8845 94.0496 76.6827 93.5956C75.8251 91.6029 71.1084 87.0375 67.1483 87.5924C66.4925 87.6681 65.8871 87.2141 65.7862 86.5583C65.6853 85.9025 66.1646 85.2719 66.8204 85.1962C71.966 84.49 77.6412 89.686 78.9024 92.6623C79.1546 93.2677 78.8771 93.9992 78.2718 94.2514C78.0952 94.2766 77.9439 94.3271 77.7926 94.3271Z"/><path fill="#201000" d="M90.3287 66.9849C90.0261 65.7994 88.0586 65.5724 87.983 66.9849C87.9578 67.2876 87.9325 67.5902 87.9073 67.8929C87.8064 67.8929 87.7055 67.8929 87.6046 67.9434C84.2751 69.0784 81.3997 71.172 79.5332 74.1735C78.8521 75.2582 78.1711 76.7463 78.0702 78.1588C78.0198 78.6633 78.0702 79.1425 78.1963 79.5966C78.3729 80.2019 78.7008 80.7568 79.2557 81.2109C79.9115 81.7406 80.5925 81.9676 81.2483 81.9676C83.2158 81.9423 85.1327 80.0506 86.2678 78.5876C88.2857 76.0148 89.5721 73.0133 90.1017 69.8351C90.1774 69.3559 90.2531 68.8766 90.3035 68.3722C90.3287 68.0443 90.354 67.7416 90.3792 67.4137C90.3792 67.2371 90.354 67.0858 90.3287 66.9849Z"/><path fill="#201000" d="M108.59 117.482C106.623 116.927 105.008 115.767 103.823 114.102C102.915 112.841 105.008 111.63 105.916 112.891C106.724 114.026 107.909 114.783 109.221 115.162C110.734 115.565 110.104 117.886 108.59 117.482Z"/><path fill="#201000" d="M99.6615 90.5183C96.1807 90.5183 92.271 88.223 90.5054 82.7243C90.3036 82.0937 90.6568 81.4127 91.2873 81.2109C91.9179 81.0091 92.5989 81.3622 92.8007 81.9928C94.3141 86.76 97.7697 88.45 100.443 88.0464C103.42 87.5672 105.362 84.7169 105.362 80.7569C105.362 80.1515 105.816 79.6218 106.421 79.5462L115.704 78.3354C116.309 78.2598 116.889 78.6381 117.04 79.2183C117.948 82.6486 120.799 84.0864 123.119 83.7332C124.986 83.4558 126.928 81.8919 126.777 78.3859C126.751 77.7301 127.256 77.1499 127.937 77.1247C128.618 77.0491 129.173 77.604 129.198 78.285C129.45 83.4053 126.272 85.7259 123.498 86.1547C120.345 86.6339 116.586 84.9692 115.022 80.883L107.758 81.8415C107.355 87.4411 103.849 89.9886 100.822 90.4679C100.443 90.4931 100.065 90.5183 99.6615 90.5183Z"/><path fill="#201000" d="M102.442 82.4504C102.493 81.6162 101.858 80.8984 101.024 80.8473C100.19 80.7961 99.472 81.4309 99.4209 82.2652C99.3697 83.0994 100.005 83.8172 100.839 83.8683C101.673 83.9195 102.391 83.2847 102.442 82.4504Z"/><path fill="#201000" d="M123.895 79.521C123.946 78.6868 123.311 77.969 122.477 77.9179C121.643 77.8667 120.925 78.5015 120.874 79.3358C120.823 80.17 121.458 80.8878 122.292 80.9389C123.126 80.9901 123.844 80.3553 123.895 79.521Z"/><path fill="#201000" d="M153.161 251.468C150.513 251.468 147.94 251.115 145.72 250.687C124.659 246.474 113.535 242.186 113.434 242.161C112.804 241.909 112.501 241.228 112.753 240.597C113.005 239.967 113.686 239.664 114.317 239.916C114.418 239.967 125.39 244.179 146.199 248.341C153.211 249.753 159.088 249.123 162.721 246.575C165.142 244.885 166.63 242.363 167.16 239.033C168.522 230.609 163.023 215.576 154.498 193.631C152.833 189.343 151.471 185.182 150.185 181.146C143.727 161.219 139.061 146.842 107.557 146.237C106.901 146.211 106.346 145.682 106.372 145.001C106.397 144.345 106.927 143.815 107.582 143.815H107.608C140.852 144.446 146.25 161.118 152.505 180.414C153.792 184.425 155.154 188.561 156.793 192.774C165.722 215.752 171.019 230.382 169.581 239.437C168.951 243.447 167.109 246.525 164.133 248.593C160.93 250.737 156.97 251.468 153.161 251.468Z"/><path fill="#201000" d="M76.0019 198.878L58.4213 167.349C58.0934 166.768 57.3619 166.567 56.7817 166.869C56.2016 167.197 55.9998 167.929 56.3025 168.509L72.7733 197.995C73.8327 198.323 74.9173 198.6 76.0019 198.878Z"/><path fill="#201000" d="M134.697 201.577C134.495 200.946 133.814 200.593 133.184 200.795C123.927 203.796 92.902 216.131 86.9493 218.502C86.6466 218.754 85.0323 218.88 83.2919 218.628C83.2919 218.628 84.654 221.15 85.0576 221.175C85.562 221.226 86.1674 221.377 86.8484 221.15C87.2268 220.999 123.775 206.394 133.915 203.115C134.546 202.913 134.899 202.232 134.697 201.577Z"/><path fill="#201000" d="M77.8433 258.758C73.3283 258.758 69.2421 257.068 66.0387 252.629C56.8322 239.815 29.5154 191.235 29.2379 190.756C28.91 190.176 29.1118 189.444 29.6919 189.116C30.2721 188.788 31.0035 188.99 31.3314 189.57C31.6089 190.05 58.8501 238.504 68.0062 251.216C75.7245 261.961 90.127 253.612 102.814 246.247C104.227 245.44 105.589 244.633 106.901 243.901C118.302 237.495 134.823 224.732 138.228 222.083L126.423 177.135C126.247 176.479 126.65 175.824 127.281 175.647C127.937 175.471 128.593 175.874 128.769 176.505L140.775 222.235C140.902 222.689 140.725 223.193 140.347 223.496C140.145 223.647 120.95 238.781 108.086 245.995C106.774 246.726 105.412 247.508 104.025 248.316C95.7014 253.158 86.0661 258.758 77.8433 258.758Z"/><path fill="#201000" d="M55.7976 212.347C55.394 212.347 54.9905 212.145 54.7635 211.767C53.4771 209.598 53.9059 208.059 54.486 207.126C56.4282 204.074 63.516 203.443 69.4687 203.519C68.939 203.342 68.4597 203.166 67.9805 203.014C61.8764 200.971 59.3541 200.114 59.001 198.272C58.8496 197.44 59.2028 196.633 60.0856 195.876C62.5827 193.732 81.4245 198.298 113.433 208.614C114.064 208.816 113.105 209.068 112.903 209.724C112.701 210.354 112.02 210.708 111.39 210.506C84.4513 201.829 63.97 196.608 61.599 197.768C61.5485 197.818 61.5233 197.844 61.4981 197.869C62.3052 198.55 65.4582 199.609 68.7624 200.719C71.3604 201.602 74.6142 202.687 78.3725 204.099C78.9527 204.301 79.2553 204.906 79.1292 205.512C78.9779 206.117 78.423 206.495 77.8176 206.445C70.0488 205.612 58.32 205.663 56.5543 208.437C56.4282 208.614 56.0751 209.194 56.857 210.531C57.2101 211.111 57.0083 211.843 56.4282 212.196C56.2264 212.297 55.9994 212.347 55.7976 212.347Z"/><path fill="#201000" d="M58.118 217.619C57.7144 217.619 57.3361 217.417 57.1091 217.064C55.6966 214.895 55.3939 213.154 56.201 211.716C57.9414 208.538 64.323 208.589 72.3692 208.69C74.8411 208.715 77.4139 208.74 79.7849 208.664C80.4659 208.639 81.0208 209.169 81.046 209.825C81.0712 210.506 80.5416 211.061 79.8858 211.086C77.4391 211.162 74.8663 211.136 72.3692 211.111C66.5931 211.061 59.4044 210.96 58.345 212.877C57.9414 213.633 58.6729 214.996 59.1774 215.727C59.5305 216.282 59.3792 217.039 58.8243 217.392C58.572 217.543 58.345 217.619 58.118 217.619Z"/><path fill="#201000" d="M65.5585 222.033C61.4976 222.033 58.4455 221.377 57.6132 219.132C57.0835 217.694 57.487 216.685 57.9158 216.055C59.7824 213.356 65.9116 213.129 75.774 213.003C77.9432 212.978 80.1628 212.952 82.332 212.877C82.9878 212.826 83.568 213.381 83.5932 214.037C83.6184 214.718 83.0887 215.273 82.4329 215.298C80.2637 215.374 78.0188 215.399 75.8244 215.424C69.2916 215.5 61.1949 215.626 59.9337 217.442C59.858 217.543 59.7319 217.745 59.9337 218.3C60.6652 220.292 68.8375 219.561 74.2606 219.056C78.7503 218.653 83.0131 218.275 85.5858 218.779C86.2416 218.905 86.6704 219.536 86.5443 220.217C86.4182 220.873 85.7876 221.301 85.1066 221.175C82.8617 220.721 78.599 221.1 74.4624 221.478C71.2842 221.755 68.207 222.033 65.5585 222.033Z"/><path fill="#201000" d="M33.1224 195.397C32.9206 195.397 32.6936 195.347 32.5171 195.22C31.9369 194.893 31.7352 194.136 32.0883 193.556C35.1655 188.284 51.3085 173.427 62.5076 176.454C63.1634 176.631 63.5418 177.287 63.3652 177.942C63.1887 178.598 62.5076 178.977 61.877 178.8C52.4183 176.252 37.1077 189.747 34.1818 194.792C33.9296 195.17 33.526 195.397 33.1224 195.397Z"/><path fill="#201000" d="M149.301 174.689C149.2 174.31 149.175 173.957 149.225 173.604C144.13 171.864 134.142 175.597 128.517 179.456C127.962 179.834 127.836 180.591 128.214 181.146C128.441 181.499 128.82 181.675 129.223 181.675C129.45 181.675 129.702 181.6 129.904 181.474C136.387 177.009 146.274 174.31 149.124 176.227C149.301 176.328 149.478 176.404 149.654 176.429C149.578 175.824 149.478 175.244 149.301 174.689Z"/><path fill="#201000" d="M32.1127 262.214C31.5073 262.214 30.9776 261.76 30.902 261.154C30.8768 260.952 28.4301 240.522 25.4537 188.208C24.5961 173.074 27.8499 161.446 35.1395 153.652C46.6161 141.394 65.4832 141.242 76.7832 141.142C78.6245 141.116 80.2136 141.116 81.6009 141.041C82.2567 141.015 82.8368 141.52 82.8621 142.201C82.8873 142.857 82.3828 143.437 81.7018 143.462C80.2893 143.513 78.675 143.538 76.8085 143.563C65.912 143.664 47.6755 143.815 36.9051 155.317C30.0948 162.607 27.0428 173.629 27.8752 188.057C30.8768 240.269 33.2982 260.65 33.3234 260.852C33.3991 261.507 32.9198 262.113 32.264 262.188C32.2136 262.214 32.1631 262.214 32.1127 262.214Z"/><path fill="#201000" d="M132.679 246.121C132.629 246.272 132.629 246.424 132.629 246.575L133.839 259.288C133.89 259.918 134.419 260.372 135.05 260.372C135.1 260.372 135.126 260.372 135.176 260.372C135.832 260.322 136.336 259.717 136.261 259.061L135.151 247.332C134.293 247.004 133.461 246.6 132.679 246.121Z"/><path fill="#fff" d="M109.826 139.679L111.44 145.329L107.001 176.833L98.1224 168.761L92.8759 179.254L75.5223 142.1L81.9794 136.45L98.1224 168.761L109.826 139.679Z"/><path fill="#201000" d="M112.6 145.001L112.323 143.992L110.986 139.351C110.91 139.048 110.708 138.821 110.481 138.67C110.305 138.569 110.103 138.493 109.901 138.468C109.674 138.443 109.447 138.493 109.245 138.619C109.018 138.745 108.817 138.972 108.716 139.225L106.748 144.118L106.395 145.001L104.478 149.768L98.0211 165.785L83.896 137.61L83.0637 135.92C83.0637 135.92 83.0637 135.92 83.0637 135.895C82.8871 135.567 82.5844 135.34 82.2313 135.265C82.1556 135.239 82.0547 135.239 81.9791 135.239C81.7016 135.239 81.4241 135.34 81.1971 135.542L74.7904 141.167L74.74 141.217C74.3364 141.57 74.2103 142.151 74.4373 142.63L74.8913 143.588L91.7909 179.784C91.9927 180.213 92.3963 180.465 92.8755 180.49H92.9008C93.3548 180.49 93.7836 180.238 93.9854 179.809L98.3742 171.006L98.5003 170.729L98.6012 170.804L106.219 177.715C106.547 178.018 107.026 178.119 107.455 177.968C107.883 177.816 108.186 177.438 108.237 177.009L112.55 146.438L112.676 145.505C112.676 145.329 112.651 145.177 112.6 145.001ZM99.6354 168.484L99.5597 168.408L106.723 150.651L108.514 146.211L109.472 143.815L109.649 143.386L109.775 143.815L110.229 145.379L110.103 146.237L106.143 174.335L99.6354 168.484ZM96.7599 168.761L96.2555 169.795L92.9008 176.479L77.5145 143.563L76.9848 142.428L78.473 141.116L81.1467 138.771L81.6007 138.392L82.2061 139.603L83.0637 141.318L85.2833 145.732L93.2034 161.572L96.7599 168.761Z"/><path fill="#853EF3" d="M164.109 179V169.863H167.099C167.673 169.863 168.173 169.963 168.6 170.163C169.035 170.364 169.374 170.646 169.618 171.012C169.861 171.369 169.983 171.786 169.983 172.265C169.983 172.735 169.848 173.148 169.579 173.505C169.309 173.853 168.943 174.114 168.482 174.288C169.039 174.453 169.478 174.727 169.8 175.11C170.131 175.484 170.296 175.933 170.296 176.455C170.296 176.959 170.166 177.403 169.905 177.786C169.652 178.169 169.3 178.469 168.848 178.687C168.404 178.896 167.877 179 167.268 179H164.109ZM165.65 173.714H166.942C167.394 173.714 167.756 173.596 168.025 173.361C168.295 173.126 168.43 172.813 168.43 172.421C168.43 172.021 168.295 171.708 168.025 171.482C167.756 171.247 167.394 171.129 166.942 171.129H165.65V173.714ZM165.65 177.734H167.085C167.581 177.734 167.977 177.608 168.273 177.355C168.578 177.094 168.73 176.751 168.73 176.324C168.73 175.889 168.582 175.545 168.286 175.293C167.99 175.041 167.59 174.915 167.085 174.915H165.65V177.734ZM175.966 179.144C175.322 179.144 174.73 178.961 174.191 178.595C173.651 178.23 173.221 177.699 172.899 177.003C172.577 176.298 172.416 175.441 172.416 174.432C172.416 173.422 172.577 172.569 172.899 171.873C173.221 171.168 173.651 170.633 174.191 170.268C174.73 169.902 175.322 169.72 175.966 169.72C176.61 169.72 177.197 169.902 177.728 170.268C178.268 170.633 178.698 171.168 179.02 171.873C179.351 172.569 179.516 173.422 179.516 174.432C179.516 175.441 179.351 176.298 179.02 177.003C178.698 177.699 178.268 178.23 177.728 178.595C177.197 178.961 176.61 179.144 175.966 179.144ZM175.966 177.734C176.331 177.734 176.662 177.612 176.958 177.368C177.263 177.116 177.502 176.746 177.676 176.259C177.85 175.763 177.937 175.154 177.937 174.432C177.937 173.709 177.85 173.105 177.676 172.617C177.502 172.13 177.263 171.76 176.958 171.508C176.662 171.255 176.331 171.129 175.966 171.129C175.6 171.129 175.265 171.255 174.961 171.508C174.665 171.76 174.43 172.13 174.256 172.617C174.082 173.105 173.995 173.709 173.995 174.432C173.995 175.154 174.082 175.763 174.256 176.259C174.43 176.746 174.665 177.116 174.961 177.368C175.265 177.612 175.6 177.734 175.966 177.734ZM182.171 179V169.863H185.277C185.886 169.863 186.417 169.981 186.87 170.216C187.331 170.442 187.688 170.764 187.94 171.181C188.201 171.59 188.331 172.069 188.331 172.617C188.331 173.218 188.175 173.735 187.862 174.171C187.548 174.606 187.122 174.923 186.582 175.123L188.579 179H186.896L185.081 175.345H183.737V179H182.171ZM183.737 174.092H185.147C185.634 174.092 186.021 173.962 186.308 173.701C186.604 173.431 186.752 173.078 186.752 172.643C186.752 172.2 186.604 171.847 186.308 171.586C186.021 171.316 185.634 171.181 185.147 171.181H183.737V174.092ZM191.221 179V169.863H194.327C194.936 169.863 195.467 169.981 195.92 170.216C196.381 170.442 196.738 170.764 196.99 171.181C197.251 171.59 197.382 172.069 197.382 172.617C197.382 173.218 197.225 173.735 196.912 174.171C196.598 174.606 196.172 174.923 195.633 175.123L197.63 179H195.946L194.132 175.345H192.787V179H191.221ZM192.787 174.092H194.197C194.684 174.092 195.071 173.962 195.358 173.701C195.654 173.431 195.802 173.078 195.802 172.643C195.802 172.2 195.654 171.847 195.358 171.586C195.071 171.316 194.684 171.181 194.197 171.181H192.787V174.092ZM203.116 179.144C202.473 179.144 201.881 178.961 201.341 178.595C200.802 178.23 200.371 177.699 200.049 177.003C199.727 176.298 199.566 175.441 199.566 174.432C199.566 173.422 199.727 172.569 200.049 171.873C200.371 171.168 200.802 170.633 201.341 170.268C201.881 169.902 202.473 169.72 203.116 169.72C203.76 169.72 204.348 169.902 204.879 170.268C205.418 170.633 205.849 171.168 206.171 171.873C206.501 172.569 206.667 173.422 206.667 174.432C206.667 175.441 206.501 176.298 206.171 177.003C205.849 177.699 205.418 178.23 204.879 178.595C204.348 178.961 203.76 179.144 203.116 179.144ZM203.116 177.734C203.482 177.734 203.813 177.612 204.108 177.368C204.413 177.116 204.652 176.746 204.826 176.259C205 175.763 205.087 175.154 205.087 174.432C205.087 173.709 205 173.105 204.826 172.617C204.652 172.13 204.413 171.76 204.108 171.508C203.813 171.255 203.482 171.129 203.116 171.129C202.751 171.129 202.416 171.255 202.111 171.508C201.816 171.76 201.581 172.13 201.407 172.617C201.233 173.105 201.145 173.709 201.145 174.432C201.145 175.154 201.233 175.763 201.407 176.259C201.581 176.746 201.816 177.116 202.111 177.368C202.416 177.612 202.751 177.734 203.116 177.734ZM209.543 179L208.473 169.863H209.856L210.431 175.893L211.605 169.863H212.78L213.955 175.841L214.529 169.863H215.861L214.803 179H213.394L212.18 172.552L210.953 179H209.543Z"/></svg>