<svg viewBox="0 0 168 112" fill="none" xmlns="http://www.w3.org/2000/svg">
    <path
        d="M168 74.8813V111H0V71.4123C9.63321 68.2084 20.4058 71.009 30.0621 74.3166C42.6647 78.6384 55.3363 84.8272 68.9632 84.3086H68.9862C75.8112 84.0435 81.9916 81.5772 88.3332 79.2607C89.0468 78.9956 89.7719 78.7421 90.497 78.5116C96.5623 76.5409 102.628 75.6073 109.107 76.126C116.013 76.6792 122.746 78.4425 129.605 79.3644C135.935 80.2173 142.219 80.2749 148.549 79.2838C155.11 78.2581 161.543 76.4487 168 74.8813Z"
        fill="#853EF3" />
    <path
        d="M60.3143 110.728H60.3028C59.9917 110.716 59.7613 110.463 59.7613 110.163L60.8673 70.3353C60.8788 70.0243 61.1438 69.7938 61.4318 69.7938C61.7429 69.8053 61.9733 70.0588 61.9733 70.3584L60.8673 110.186C60.8558 110.486 60.6023 110.728 60.3143 110.728Z"
        fill="#201000" />
    <path
        d="M107.884 110.728C107.596 110.728 107.343 110.497 107.331 110.198L105.396 69.5404C105.384 69.2409 105.615 68.9759 105.926 68.9643C106.225 68.9413 106.49 69.1832 106.502 69.4943L108.437 110.152C108.449 110.451 108.219 110.716 107.907 110.728C107.907 110.728 107.896 110.728 107.884 110.728Z"
        fill="#201000" />
    <path
        d="M86.3979 110.728C86.0983 110.728 85.8449 110.486 85.8449 110.186L84.831 54.7706C84.831 54.4595 85.073 54.2176 85.3725 54.2061H85.384C85.6836 54.2061 85.937 54.448 85.937 54.7475L86.9509 110.163C86.9624 110.474 86.7204 110.716 86.3979 110.728C86.4094 110.728 86.4094 110.728 86.3979 110.728Z"
        fill="#201000" />
    <path
        d="M98.2877 17.2123C99.6126 16.1178 100.742 14.7929 100.938 13.0302C101.133 11.2214 100.315 9.38955 98.5066 8.83654C96.0296 8.07616 92.9996 9.88495 90.9258 11.014C88.7138 12.2237 86.6861 13.6869 84.8313 15.3689C84.935 14.6546 84.8658 13.9518 84.4511 13.2951C83.61 11.9702 82.2045 11.9126 80.9141 12.5808C76.7551 14.7583 73.679 20.2077 71.8356 24.3207C71.6398 24.7585 71.9969 25.0811 72.3771 25.1041C72.3771 25.1156 72.3771 25.1271 72.3886 25.1271C72.4693 25.2539 72.5499 25.3576 72.6421 25.4613C73.8288 25.876 74.8196 26.4751 75.3265 27.0396C75.3265 27.0396 75.1882 22.5119 82.2391 20.3229C88.2991 18.4335 92.412 19.2054 94.7853 22.9151C94.8084 22.9036 94.843 22.8921 94.866 22.8806C94.9582 22.9036 95.0388 22.9036 95.154 22.869C97.0319 22.316 100.361 20.8183 99.1518 18.18C98.9444 17.7307 98.6333 17.4196 98.2877 17.2123Z"
        fill="#201000" />
    <path
        d="M91.1101 58.8144C90.8105 58.8144 90.5571 58.5725 90.5571 58.2729L90.3727 48.6875C90.3727 48.388 90.5916 48.146 90.8912 48.123C94.1516 47.8926 96.5825 47.1437 97.8268 44.2865C98.9213 41.7634 97.8613 36.5675 96.7438 31.072C96.5595 30.1503 96.3636 29.2171 96.1793 28.2839C95.7645 26.1986 95.1424 24.4935 94.3244 23.2262C92.1124 19.7699 88.322 19.0096 82.4002 20.8644C75.8909 22.8921 75.8794 26.8668 75.8794 27.0397C75.8794 27.2701 75.7411 27.4775 75.5222 27.5696C75.3033 27.6503 75.0614 27.5927 74.9116 27.4199C74.4623 26.9129 73.5176 26.3714 72.4577 25.9913C70.4645 25.3 68.4484 25.3115 67.0544 26.0258C66.0059 26.5558 65.2686 27.4775 64.8769 28.7678C64.3008 30.6227 64.5082 32.2702 65.4875 33.6642C66.9391 35.738 70.1304 37.132 73.8171 37.3163C74.0591 37.3279 74.2665 37.5007 74.3241 37.7311C74.3356 37.7887 75.6835 43.0077 78.3794 44.6552C78.5407 44.7473 78.6329 44.9202 78.6444 45.1045C78.8172 49.0792 78.9555 52.6853 79.0476 55.8074C79.0592 56.1185 78.8172 56.372 78.5062 56.372C78.2181 56.372 77.9416 56.1415 77.9416 55.8305C77.8495 52.789 77.7227 49.2866 77.5499 45.4271C75.0614 43.7105 73.725 39.6781 73.3563 38.3878C69.4507 38.1113 66.1903 36.5905 64.5774 34.2863C63.4137 32.6273 63.1488 30.5996 63.817 28.4337C64.3008 26.8438 65.2225 25.7032 66.5589 25.0235C68.9438 23.8138 71.7434 24.5627 72.8263 24.9313C73.6328 25.2193 74.3586 25.5765 74.9232 25.9682C75.3149 24.3783 76.7665 21.4405 82.0777 19.793C88.4603 17.7999 92.7691 18.7331 95.2576 22.6156C96.1678 24.0212 96.8245 25.7954 97.2622 28.0535C97.4466 28.9752 97.6309 29.9084 97.8153 30.83C98.9674 36.5099 100.062 41.8671 98.8291 44.7013C97.3659 48.0769 94.4742 48.8949 91.4787 49.1599L91.6516 58.2268C91.6631 58.5609 91.4211 58.8144 91.1101 58.8144Z"
        fill="#201000" />
    <path
        d="M78.5629 59.137C78.2518 59.137 78.0099 58.8835 78.0099 58.5724C78.0099 58.5379 78.0214 57.766 77.8371 52.7429C77.8255 52.5355 77.9407 52.3396 78.1251 52.2359C78.3094 52.1322 78.5283 52.1438 78.7011 52.259C81.4201 54.1138 85.8095 54.3903 90.4179 53.0194C90.7059 52.9272 91.017 53.1 91.1092 53.388C91.2013 53.676 91.0285 53.9871 90.7405 54.0793C86.2819 55.4157 81.9846 55.2659 78.9892 53.7106C79.1274 57.9158 79.1274 58.5609 79.1274 58.584C79.1159 58.9066 78.8624 59.137 78.5629 59.137Z"
        fill="#201000" />
    <path
        d="M73.8523 33.3877C73.6334 33.3877 73.4145 33.2494 73.3338 33.0305C72.9536 32.0397 70.7186 29.7125 68.7715 29.8969C68.4605 29.9199 68.1955 29.701 68.1724 29.4014C68.1379 29.1019 68.3683 28.8254 68.6678 28.8024C71.1794 28.5604 73.8177 31.1872 74.3707 32.6388C74.4744 32.9269 74.3361 33.2494 74.0481 33.3531C73.979 33.3762 73.9214 33.3877 73.8523 33.3877Z"
        fill="#201000" />
    <path
        d="M95.0271 33.6527H80.4877C77.6305 33.6527 75.3263 31.3369 75.3263 28.4913C75.3263 25.6341 77.642 23.3299 80.4877 23.3299H95.0156C97.8728 23.3299 100.177 25.6456 100.177 28.4913C100.188 31.3369 97.8728 33.6527 95.0271 33.6527Z"
        fill="#00DA9F" />
    <path
        d="M95.027 34.2057H80.4875C77.3308 34.2057 74.7732 31.6365 74.7732 28.4913C74.7732 25.3346 77.3423 22.7769 80.4875 22.7769H95.0154C98.1722 22.7769 100.73 25.3461 100.73 28.4913C100.741 31.6365 98.1722 34.2057 95.027 34.2057ZM80.4875 23.8714C77.9414 23.8714 75.8792 25.9452 75.8792 28.4798C75.8792 31.0259 77.9529 33.0882 80.4875 33.0882H95.0154C97.5616 33.0882 99.6238 31.0144 99.6238 28.4798C99.6238 25.9337 97.55 23.8714 95.0154 23.8714H80.4875Z"
        fill="#201000" />
    <path
        d="M92.6539 41.6713H87.5271C87.0547 41.6713 86.6284 41.4984 86.2943 41.1989C85.9141 40.8648 85.6837 40.3694 85.6837 39.8279C85.6837 39.2173 85.9717 38.6873 86.4211 38.3532C86.7321 38.1228 87.1123 37.9846 87.5271 37.9846H92.6539C93.2299 37.9846 93.7484 38.2495 94.094 38.6758C94.3475 38.9869 94.4972 39.3901 94.4972 39.8279C94.4972 40.3118 94.3129 40.7381 94.0134 41.0722C93.6793 41.4408 93.1954 41.6713 92.6539 41.6713Z"
        fill="#201000" />
    <path
        d="M87.5964 38.8947C86.5941 38.9062 85.6378 38.6067 84.8429 37.9615C84.2899 37.5122 83.5065 38.2956 84.0595 38.7449C85.0733 39.5744 86.2715 40.0122 87.5964 40.0007C88.3107 39.9892 88.3107 38.8832 87.5964 38.8947Z"
        fill="#201000" />
    <path
        d="M97.332 40.7496H91.295C90.6844 40.7496 90.189 40.2542 90.189 39.6436C90.189 39.0329 90.6844 38.5375 91.295 38.5375H97.332C99.6938 38.5375 101.618 36.6135 101.618 34.2518V1.10601C101.618 0.495401 102.113 0 102.724 0C103.334 0 103.83 0.495401 103.83 1.10601V34.2518C103.83 37.8348 100.915 40.7496 97.332 40.7496Z"
        fill="#201000" />
    <path
        d="M96.801 28.3876C96.3748 28.9982 95.937 29.6203 95.5107 30.2309C95.096 30.8185 96.0637 31.3715 96.4669 30.7839C96.8932 30.1733 97.331 29.5512 97.7573 28.9406C98.172 28.3645 97.2043 27.8115 96.801 28.3876Z"
        fill="white" />
    <path
        d="M91.3987 37.4546C91.3065 37.4546 91.2028 37.4315 91.1106 37.3739C90.8457 37.2126 90.765 36.8785 90.9263 36.6136C92.3434 34.2633 91.583 31.7056 88 26.8438C87.8157 26.6019 87.8733 26.2562 88.1152 26.0719C88.3571 25.8876 88.7028 25.9452 88.8871 26.1871C92.2282 30.7379 93.795 33.9983 91.871 37.1896C91.7673 37.3624 91.583 37.4546 91.3987 37.4546Z"
        fill="#201000" />
    <path
        d="M81.0906 28.7436C81.1317 28.3384 80.8365 27.9767 80.4314 27.9357C80.0262 27.8946 79.6645 28.1898 79.6235 28.5949C79.5824 29.0001 79.8776 29.3618 80.2827 29.4028C80.6879 29.4439 81.0496 29.1487 81.0906 28.7436Z"
        fill="#201000" />
    <path
        d="M93.2228 27.5973C93.2638 27.1922 92.9686 26.8305 92.5635 26.7894C92.1583 26.7484 91.7966 27.0435 91.7556 27.4487C91.7145 27.8538 92.0097 28.2155 92.4148 28.2566C92.82 28.2976 93.1817 28.0025 93.2228 27.5973Z"
        fill="#201000" />
    <path
        d="M80.9947 24.77C80.8565 24.459 80.5108 24.3668 80.2113 24.482C79.9002 24.5972 79.5891 24.7124 79.2781 24.8277C78.9785 24.9429 78.8633 25.3346 78.9901 25.6111C79.1283 25.9221 79.4739 26.0143 79.7735 25.8991C80.0845 25.7839 80.3956 25.6687 80.7067 25.5535C81.0062 25.4383 81.1214 25.0466 80.9947 24.77Z"
        fill="#201000" />
    <path
        d="M92.9294 24.0788L92.1921 24.0096C91.4317 23.929 91.3165 25.1041 92.0769 25.1848L92.8142 25.2539C93.5631 25.3345 93.6898 24.1594 92.9294 24.0788Z"
        fill="#201000" />
    <path
        d="M124.763 81.3147C124.521 81.3147 124.302 81.1534 124.233 80.9115C124.21 80.8308 121.929 72.7086 115.523 59.9895C109.935 48.8948 102.32 52.0055 94.2554 55.312C93.3106 55.7037 92.3659 56.0839 91.4327 56.441C91.1447 56.5447 90.8221 56.4065 90.7184 56.1184C90.6032 55.8304 90.753 55.5078 91.041 55.4041C91.9627 55.047 92.8959 54.6668 93.8406 54.2866C101.64 51.0953 110.477 47.4892 116.525 59.4941C122.989 72.3284 125.293 80.5428 125.316 80.6235C125.396 80.923 125.224 81.2225 124.936 81.3032C124.866 81.3147 124.809 81.3147 124.763 81.3147Z"
        fill="#201000" />
    <path
        d="M167.713 42.0399C167.494 41.5445 167.067 41.2334 166.699 41.0606C166.872 40.5421 166.814 40.1274 166.71 39.8278C166.468 39.1481 165.881 38.7103 165.431 38.4684C165.604 37.8347 165.489 37.3624 165.339 37.0398C164.959 36.2448 164.107 35.8762 163.692 35.7494C161.929 33.1803 156.526 33.9752 152.678 34.9545C154.245 33.8139 155.685 32.4314 155.535 31.3139C155.477 30.8991 155.212 30.3691 154.222 30.1387C151.157 29.4244 139.037 35.7149 136.618 39.92C134.267 44.0099 122.32 88.1697 121.813 90.0476C121.733 90.3471 121.905 90.6467 122.205 90.7273C122.493 90.808 122.804 90.6352 122.885 90.3356C123.011 89.8748 135.304 44.4362 137.585 40.473C139.901 36.4292 151.606 30.6687 153.98 31.2102C154.291 31.2793 154.441 31.383 154.452 31.4521C154.533 32.0858 152.344 34.2056 148.588 36.1987C148.334 36.337 148.219 36.6481 148.346 36.913C148.461 37.178 148.772 37.3047 149.037 37.2126C152.321 36.0259 161.192 33.595 162.862 36.4983C162.943 36.6365 163.07 36.7287 163.219 36.7633C163.461 36.8209 164.141 37.0628 164.349 37.5236C164.475 37.7886 164.441 38.1112 164.245 38.5144C164.176 38.6527 164.164 38.8255 164.233 38.9753C164.291 39.1251 164.418 39.2403 164.567 39.2864C164.798 39.367 165.512 39.7126 165.685 40.1965C165.777 40.45 165.708 40.738 165.489 41.0836C165.385 41.2334 165.374 41.4292 165.443 41.6021C165.512 41.7749 165.662 41.8901 165.846 41.9246C165.984 41.9477 166.561 42.132 166.722 42.5007C166.837 42.7541 166.756 43.0998 166.503 43.5261C166.111 44.1943 163.726 44.7012 161.63 45.1505C158.277 45.8648 154.475 46.6828 152.735 48.7335C150.685 51.1644 145.834 69.5173 141.94 84.2641C140.178 90.9117 138.668 96.6606 137.77 99.5639C136.203 104.622 133.184 107.675 129.256 108.182C124.832 108.746 120.004 105.912 116.951 100.969C110.546 90.5776 107.032 83.7917 106.997 83.7226C106.905 83.5383 106.732 83.4346 106.536 83.4231V85.2318C107.746 87.49 110.995 93.4232 116.007 101.557C119.002 106.407 123.645 109.357 128.127 109.357C128.553 109.357 128.968 109.334 129.382 109.276C133.772 108.723 137.113 105.382 138.818 99.8865C139.728 96.9602 141.249 91.1997 143.012 84.5406C146.675 70.6809 151.699 51.6829 153.588 49.4363C155.074 47.6736 158.842 46.8671 161.86 46.222C164.637 45.6344 166.814 45.162 167.459 44.0675C167.897 43.3187 167.989 42.6274 167.713 42.0399Z"
        fill="#201000" />
    <path
        d="M154.234 38.5145C154.015 38.5145 153.819 38.3877 153.727 38.1804C153.6 37.9038 153.727 37.5697 154.015 37.4545C156.031 36.5674 162.967 35.7034 163.266 35.6688C163.577 35.6227 163.842 35.8416 163.889 36.1527C163.935 36.4637 163.716 36.7287 163.405 36.7748C163.336 36.7863 156.331 37.6619 154.464 38.4799C154.384 38.5029 154.315 38.5145 154.234 38.5145Z"
        fill="#201000" />
    <path
        d="M155.639 40.9569C155.421 40.9569 155.213 40.8302 155.132 40.6113C155.017 40.3232 155.156 40.0006 155.432 39.8854C157.16 39.1827 164.361 38.238 164.66 38.1919C164.96 38.1458 165.236 38.3647 165.282 38.6642C165.317 38.9638 165.11 39.2403 164.81 39.2864C162.771 39.5513 157.183 40.3578 155.858 40.8993C155.778 40.9454 155.709 40.9569 155.639 40.9569Z"
        fill="#201000" />
    <path
        d="M157.033 43.5837C156.814 43.5837 156.607 43.4569 156.526 43.238C156.411 42.95 156.549 42.6274 156.826 42.5122C158.554 41.8095 165.662 40.9454 165.962 40.9108C166.273 40.8763 166.538 41.0952 166.572 41.3947C166.607 41.6942 166.388 41.9707 166.089 42.0053C164.072 42.2472 158.554 42.9961 157.229 43.5376C157.171 43.5722 157.102 43.5837 157.033 43.5837Z"
        fill="#201000" />
    <path
        d="M149.487 36.3946C149.233 35.7379 148.254 36.2679 148.519 36.9245C149.44 39.2979 148.818 41.9246 146.987 43.6758C146.468 44.1712 147.228 44.9777 147.747 44.4823C149.959 42.3509 150.604 39.2287 149.487 36.3946Z"
        fill="#201000" />
    <path
        d="M151.261 54.5055C151.134 54.229 150.8 54.1023 150.523 54.2405C147.885 55.4617 138.299 53.2151 134.498 48.3418C134.405 48.2266 134.29 48.169 134.163 48.1459C134.025 48.4916 133.898 48.8372 133.76 49.1943C137.055 53.2267 144.233 55.6576 148.53 55.6576C149.532 55.6576 150.385 55.5193 150.984 55.2428C151.272 55.1046 151.387 54.782 151.261 54.5055Z"
        fill="#201000" />
    <path
        d="M120.661 106.373C120.534 106.373 120.419 106.338 120.315 106.246C120.073 106.05 120.039 105.705 120.223 105.463C125.592 98.7574 133.737 96.2343 137.988 98.0892C138.265 98.2159 138.392 98.5385 138.276 98.815C138.15 99.0915 137.827 99.2298 137.551 99.103C133.679 97.4095 126.145 99.8404 121.099 106.154C120.983 106.304 120.822 106.373 120.661 106.373Z"
        fill="#201000" />
    <path
        d="M48.078 76.7179C48.0435 76.7179 48.0089 76.7179 47.9743 76.7064C47.2946 76.6027 47.2946 76.6027 48.6886 65.0241C49.4605 58.5839 51.3961 54.6438 54.7717 52.6507C59.3916 49.9202 66.6152 50.7843 78.2053 55.4502C78.4933 55.5655 78.62 55.888 78.5163 56.1761C78.4011 56.4641 78.0785 56.5908 77.7905 56.4871C66.6959 52.017 59.5644 51.1069 55.3362 53.6069C52.2716 55.4157 50.5089 59.0909 49.7831 65.1624C48.7923 73.3999 48.608 75.4736 48.5965 75.969L48.5619 76.234C48.5389 76.4299 48.5504 76.7179 48.078 76.7179Z"
        fill="#201000" />
    <path
        d="M47.6177 111.039C41.6153 111.039 36.4424 106.868 34.7257 100.635C33.9078 97.6745 32.5713 91.8795 31.016 85.1628C27.7901 71.1879 23.3661 52.0516 21.5458 49.7474C20.1172 47.9386 16.3844 47.0169 13.3775 46.2796C10.624 45.5999 8.45801 45.0699 7.8474 43.9524C7.42113 43.1805 7.35201 42.4892 7.64003 41.9016C7.88197 41.4062 8.30824 41.1182 8.68843 40.9569C8.53866 40.4385 8.60779 40.0122 8.723 39.7242C8.97646 39.0444 9.59859 38.6297 10.0479 38.3993C9.88661 37.7656 10.0249 37.2817 10.1862 36.9707C10.5894 36.1873 11.4535 35.8531 11.8797 35.7264C14.1724 32.6158 21.9029 34.8508 25.3362 36.049C24.8177 35.3577 24.2302 34.6895 23.6772 34.0904C22.4444 32.7079 21.3845 31.5213 21.5112 30.3692C21.5688 29.8507 21.8569 29.4014 22.3753 29.0443C24.115 27.7885 32.0068 34.3554 32.0875 34.413C32.6635 34.8969 33.2165 35.2886 33.8041 35.7034C35.3364 36.7748 36.9263 37.8808 38.7696 40.715C41.6153 45.0814 51.3965 88.3771 51.8113 90.2205C51.8804 90.52 51.6961 90.8195 51.3965 90.8771C51.097 90.9463 50.7975 90.7619 50.7399 90.4624C50.6362 90.0131 40.5899 45.5192 37.8479 41.3141C36.1198 38.6643 34.6912 37.6619 33.1704 36.602C32.5829 36.1988 31.9838 35.7725 31.3732 35.2541C27.6058 32.0858 23.8845 29.9544 23.032 29.9544C23.009 29.9544 22.9974 29.9544 22.9859 29.9544C22.6864 30.1848 22.6288 30.3577 22.6172 30.4844C22.5481 31.1411 23.5504 32.2586 24.5067 33.3416C25.4399 34.3785 26.4883 35.5651 27.1795 36.8785C27.2832 37.0859 27.2602 37.3278 27.0989 37.5006C26.9376 37.6735 26.6957 37.7311 26.4883 37.6504C23.2509 36.3601 14.4489 33.6526 12.6862 36.5098C12.6056 36.6366 12.4673 36.7287 12.3175 36.7633C12.0756 36.8094 11.3959 37.0398 11.1654 37.4891C11.0272 37.7541 11.0617 38.0767 11.2461 38.4799C11.3152 38.6297 11.3152 38.791 11.2461 38.9408C11.177 39.0905 11.0617 39.1942 10.9005 39.2403C10.647 39.3209 9.93269 39.632 9.74836 40.1274C9.65619 40.3809 9.7138 40.6689 9.92117 41.0145C10.0133 41.1758 10.0249 41.3602 9.94422 41.533C9.86357 41.6943 9.7138 41.821 9.52946 41.844C9.34513 41.8786 8.80364 42.0399 8.63083 42.397C8.48105 42.7081 8.65387 43.1229 8.81516 43.4339C9.18383 44.1137 11.5456 44.7012 13.6424 45.2081C16.972 46.0261 20.7509 46.9593 22.4099 49.0677C24.3799 51.5677 28.6542 70.0588 32.0875 84.9208C33.6313 91.626 34.9792 97.4095 35.7857 100.347C37.364 106.085 42.1107 109.933 47.6062 109.933C47.6292 109.933 47.6522 109.933 47.6753 109.933C52.1339 109.91 57.6409 107.018 59.7607 98.9648C59.8414 98.6653 60.1409 98.4925 60.4405 98.5731C60.74 98.6538 60.9128 98.9533 60.8322 99.2529C58.5511 107.905 52.5486 111.016 47.6753 111.039C47.6638 111.039 47.6407 111.039 47.6177 111.039Z"
        fill="#201000" />
    <path
        d="M21.2471 38.814C21.1664 38.814 21.0858 38.791 21.0051 38.7564C19.1618 37.8808 12.1916 36.7863 12.1225 36.7748C11.823 36.7287 11.6156 36.4407 11.6617 36.1411C11.7077 35.8416 11.9842 35.6342 12.2953 35.6803C12.5833 35.7264 19.4959 36.8094 21.489 37.7541C21.7655 37.8808 21.8807 38.2149 21.754 38.4914C21.6503 38.6988 21.4545 38.814 21.2471 38.814Z"
        fill="#201000" />
    <path
        d="M19.7717 41.2103C19.691 41.2103 19.6219 41.1988 19.5528 41.1643C18.2509 40.5882 12.6863 39.5974 10.6586 39.2633C10.3591 39.2172 10.1517 38.9292 10.1978 38.6297C10.2439 38.3301 10.5319 38.1227 10.8314 38.1688C11.131 38.2149 18.297 39.39 20.0021 40.1504C20.2786 40.2772 20.4053 40.5997 20.2786 40.8762C20.1864 41.0836 19.9906 41.2103 19.7717 41.2103Z"
        fill="#201000" />
    <path
        d="M18.2975 43.7911C18.2169 43.7911 18.1477 43.7795 18.0786 43.745C16.7768 43.1689 11.2813 42.2472 9.27663 41.9477C8.97708 41.9016 8.76971 41.6251 8.81579 41.3141C8.86187 41.0145 9.1499 40.8071 9.44944 40.8532C9.74899 40.8993 16.8228 41.9823 18.5395 42.7426C18.816 42.8694 18.9427 43.192 18.816 43.4685C18.7123 43.6643 18.5164 43.7911 18.2975 43.7911Z"
        fill="#201000" />
    <path
        d="M26.0392 36.8324C26.3157 36.1757 27.272 36.7403 26.9955 37.3854C25.9932 39.7242 26.5462 42.374 28.3204 44.1713C28.8158 44.6782 28.0439 45.4616 27.537 44.9547C25.3825 42.7772 24.8411 39.6435 26.0392 36.8324Z"
        fill="#201000" />
    <path
        d="M28.4935 55.2429C27.0649 55.2429 25.5557 55.1161 23.9773 54.8512C23.6777 54.8051 23.4704 54.5171 23.528 54.2175C23.5741 53.918 23.8621 53.7106 24.1616 53.7682C31.2816 54.9548 36.777 53.3419 40.5213 48.9755C40.7172 48.7451 41.0744 48.722 41.3048 48.9179C41.5352 49.1137 41.5698 49.4709 41.3624 49.7013C38.1941 53.3765 33.8853 55.2429 28.4935 55.2429Z"
        fill="#201000" />
    <path
        d="M52.5601 109.622C52.3182 109.622 52.0878 109.46 52.0302 109.207C51.0163 105.394 42.9632 96.3496 34.622 96.8911C34.3225 96.9141 34.0575 96.6837 34.0344 96.3726C34.0114 96.0731 34.2418 95.8081 34.5529 95.7851C43.6199 95.1975 51.9841 104.737 53.1016 108.919C53.1822 109.218 53.0094 109.518 52.7099 109.599C52.6638 109.61 52.6062 109.622 52.5601 109.622Z"
        fill="#201000" />
    <path d="M20.856 76.3378H2.41095V94.7828H20.856V76.3378Z" fill="#FFDF57" />
    <path
        d="M20.8437 95.3358C20.7054 95.3358 20.5557 95.2782 20.452 95.1745L2.00695 76.7295C1.78805 76.5106 1.78805 76.1649 2.00695 75.946C2.22584 75.7271 2.57147 75.7271 2.79037 75.946L21.2354 94.3911C21.4543 94.6099 21.4543 94.9556 21.2354 95.1745C21.1317 95.2782 20.9935 95.3358 20.8437 95.3358Z"
        fill="white" />
    <path
        d="M2.41035 95.3358C2.2721 95.3358 2.12233 95.2782 2.01864 95.1745C1.79974 94.9556 1.79974 94.6099 2.01864 94.3911L20.4637 75.946C20.6826 75.7271 21.0282 75.7271 21.2471 75.946C21.466 76.1649 21.466 76.5106 21.2471 76.7295L2.80207 95.1745C2.68686 95.2782 2.54861 95.3358 2.41035 95.3358Z"
        fill="white" />
    <path d="M57.7325 5.16138H26.0153V14.7468H57.7325V5.16138Z" fill="#853EF3" />
    <path
        d="M18.631 12.5348C20.6671 12.5348 22.3177 10.8842 22.3177 8.84808C22.3177 6.81197 20.6671 5.16138 18.631 5.16138C16.5949 5.16138 14.9443 6.81197 14.9443 8.84808C14.9443 10.8842 16.5949 12.5348 18.631 12.5348Z"
        fill="#F76567" />
    <path
        d="M47.3981 18.9865H26.0152C25.7041 18.9865 25.4622 18.7446 25.4622 18.4335C25.4622 18.1224 25.7041 17.8805 26.0152 17.8805H47.4096C47.7206 17.8805 47.9626 18.1224 47.9626 18.4335C47.9626 18.7446 47.7091 18.9865 47.3981 18.9865Z"
        fill="#201000" />
    <path
        d="M44.0814 9.40106H31.9153C31.201 9.40106 31.201 10.5071 31.9153 10.5071H44.0814C44.7957 10.5071 44.7957 9.40106 44.0814 9.40106Z"
        fill="white" />
    <path
        d="M115.627 23.0419C112.274 23.0419 109.544 20.3114 109.544 16.9588C109.544 13.6063 112.274 10.8758 115.627 10.8758C118.979 10.8758 121.71 13.6063 121.71 16.9588C121.71 20.3114 118.979 23.0419 115.627 23.0419ZM115.627 11.9818C112.885 11.9818 110.65 14.2169 110.65 16.9588C110.65 19.7008 112.885 21.9359 115.627 21.9359C118.369 21.9359 120.604 19.7008 120.604 16.9588C120.604 14.2169 118.38 11.9818 115.627 11.9818Z"
        fill="#853EF3" />
    <path
        d="M58.4704 47.7543C56.7422 47.7543 55.3367 46.3488 55.3367 44.6206C55.3367 42.8925 56.7422 41.4869 58.4704 41.4869C60.1985 41.4869 61.6041 42.8925 61.6041 44.6206C61.6041 46.3488 60.1985 47.7543 58.4704 47.7543ZM58.4704 42.5929C57.3528 42.5929 56.4427 43.5031 56.4427 44.6206C56.4427 45.7382 57.3528 46.6483 58.4704 46.6483C59.5879 46.6483 60.4981 45.7382 60.4981 44.6206C60.4981 43.5031 59.5879 42.5929 58.4704 42.5929Z"
        fill="#853EF3" />
    <path
        d="M78.3787 90.1629C74.5076 90.1629 70.8901 88.4232 68.4591 85.3932C68.2633 85.1512 68.3094 84.8056 68.5398 84.6098C68.7817 84.4139 69.1274 84.46 69.3232 84.6904C71.5468 87.4554 74.8417 89.0453 78.3902 89.0453C84.0931 89.0453 89.0355 84.7941 89.8766 79.1604C89.9227 78.8608 90.1992 78.6534 90.5102 78.6995C90.8098 78.7456 91.0171 79.0221 90.9711 79.3332C90.0379 85.5084 84.6346 90.1629 78.3787 90.1629Z"
        fill="white" />
    <path
        d="M168.001 85.7389C152.874 85.7389 140.362 97.0985 138.542 111.742H139.66C141.48 97.7207 153.496 86.8449 168.001 86.8449V85.7389Z"
        fill="white" />
    <path
        d="M101.318 100.762C100.581 102.052 99.8433 103.343 99.106 104.633C98.7488 105.255 99.705 105.808 100.062 105.186C100.8 103.896 101.537 102.605 102.274 101.315C102.631 100.705 101.675 100.152 101.318 100.762Z"
        fill="#F76567" />
    <path
        d="M28.1481 90.255C27.5951 89.5177 27.042 88.7803 26.489 88.043C26.0628 87.4785 25.1065 88.0315 25.5328 88.596C26.0858 89.3334 26.6388 90.0707 27.1918 90.808C27.6181 91.3726 28.5743 90.8311 28.1481 90.255Z"
        fill="#F76567" />
    <path
        d="M165.04 81.9139C164.476 81.5568 163.923 81.1996 163.358 80.8424C162.759 80.4623 162.195 81.4185 162.805 81.7987L164.487 82.8701C165.087 83.2618 165.64 82.3056 165.04 81.9139Z"
        fill="#F76567" />
</svg>