<svg viewBox="0 0 225 189" fill="none" xmlns="http://www.w3.org/2000/svg">
    <g clip-path="url(#clip0_53_150)">
        <g clip-path="url(#clip1_53_150)">
            <path opacity="0.05"
                d="M212.727 98.5712L212.724 98.5695C212.124 98.1915 211.207 97.952 209.919 97.9938H209.917C192.722 98.4536 175.579 98.9234 158.489 99.4019C157.219 99.4437 155.525 99.931 154.049 100.788L154.045 100.79L154.042 100.792C132.309 112.511 109.232 124.038 84.8077 135.373L84.8017 135.376C83.8759 135.778 83.0936 136.225 82.493 136.667C81.8887 137.112 81.4882 137.538 81.3003 137.895C75.9736 148.261 70.5849 158.617 65.1336 168.963C64.9452 169.32 64.9127 169.596 64.9638 169.805C65.0138 170.012 65.1583 170.203 65.4248 170.37L65.4286 170.373L65.4319 170.375C67.1829 171.552 68.9581 172.724 70.7575 173.892C70.7937 173.914 70.8316 173.938 70.8706 173.963C71.5091 174.368 72.5508 175.028 74.0089 175.041C74.0095 175.041 74.0095 175.041 74.01 175.041H74.1336H74.26H74.3864H74.5127H74.6391H74.7655H74.8918H75.0182H75.144H75.2704H75.3967H75.5231H75.6495H75.7758H75.9022H76.0286H76.1544H76.2808H76.4071H76.5335H76.6599H76.7862H76.9126H77.039H77.1653H77.2911H77.4175H77.5439H77.6702H77.7966H77.923H78.0493H82.092H86.1362H86.2631H86.3895H86.5159H86.6422H86.7686H86.895H87.0213H87.1483H87.2746H87.401H87.5274H87.6537H87.7801H87.907H88.0334H88.1597H88.2861H88.413H88.5394H88.6658H88.7921H88.919H89.0454H89.1718H89.2981H89.4251H89.5514H89.6778H89.8042H89.9311H90.0574H90.1838H98.2916H98.4185H98.5454H98.6723H98.7992H98.9262H99.0531H99.18H99.3069H99.4338H99.5607H99.6876H99.8146H99.9415H100.068H100.195H100.322H100.449H100.576H100.703H100.83H100.957H101.084H101.211H101.338H101.465H101.592H101.719H101.846H101.973H102.1H102.227H102.354H102.481H102.608H102.735H102.862H102.989H103.117H103.243H103.37H103.498H103.625H103.752H103.879H104.006H104.134H104.26H104.388H104.515H104.642H104.769H104.896H105.024H105.151H105.278H105.405H105.532H105.66H105.787H105.914H106.041H106.169H106.296H106.423H106.55H106.678H106.805H106.932H107.06H107.187H107.314H107.442H107.569H107.697H107.823H107.951H108.078H108.206H108.333H108.461H108.588H108.715H108.843H108.97H109.098H109.225H109.352H109.48H109.607H109.735H109.862H109.99H110.117H110.245H110.373H110.5H110.628H110.755H110.883H111.01H111.138H111.266H111.393H111.52H111.648H111.776H111.903H112.031H112.159H112.286H112.414H112.542H112.669H112.797H112.925H113.053H113.18H113.308H113.436H113.564H113.691H113.819H113.947H114.075H114.202H114.33H114.458H114.586H122.788H122.916H123.045H123.173H123.302H123.43H123.559H123.687H123.816H123.944H124.073H124.202H124.331H124.459H124.588H124.716H124.845H124.974H125.103H125.231H125.36H125.489H125.617H125.747H125.875H126.004H126.133H126.261H126.39H126.519H126.648H126.777H126.906H127.034H127.164H127.293H127.421H127.55H127.679H127.809H127.937H128.066H128.195H128.324H128.454H128.582H128.711H128.84H128.969H129.099H129.228H129.357H129.486H129.615H129.744H129.873H130.003H130.132H130.261H130.39H130.519H130.649H130.778H130.907H131.036H135.181H135.311H135.441H135.57H135.7H135.83H135.96H136.09H136.22H136.349H136.479H136.609H136.739H136.869H136.999H137.129H137.259H137.389H137.519H137.649H137.779H137.909H138.039H138.169H138.299H138.429H138.56H138.689H138.819H138.95H139.08H139.21H139.34H139.342C141.025 175.055 143.215 174.619 145.123 173.814C170.34 162.589 194.211 151.178 216.735 139.58C217.489 139.162 218.071 138.7 218.465 138.247C218.862 137.79 219.05 137.365 219.062 137.013C219.062 137.013 219.062 137.012 219.062 137.012L219.337 137.021C219.538 125.956 219.682 114.877 219.768 103.784L212.727 98.5712ZM212.727 98.5712C213.421 98.9975 214.466 99.6437 215.338 100.184C215.773 100.454 216.165 100.697 216.449 100.873L216.784 101.081L216.875 101.138L216.899 101.152L216.905 101.156L216.907 101.157V101.157L217.052 100.924L216.907 101.157L216.909 101.158L218.684 102.244C218.687 102.247 218.691 102.25 218.694 102.254C218.717 102.281 218.75 102.32 218.791 102.37C218.871 102.47 218.979 102.611 219.086 102.773C219.309 103.111 219.492 103.489 219.493 103.781L212.727 98.5712Z"
                fill="black" stroke="black" stroke-width="0.549419" />
            <path
                d="M107.38 26.3389L107.659 26.2666L107.758 25.995L109.646 20.8085L119.937 24.5444C121.429 25.0861 122.761 26.0711 123.732 27.4279L160.085 78.2262C161.103 79.6487 161.353 81.5013 160.748 83.1694L135.287 153.301C134.681 154.969 133.301 156.229 131.607 156.667L71.1327 172.313C69.5174 172.731 67.8637 172.632 66.3715 172.091L56.0825 168.355L57.9643 163.171L58.0632 162.899L57.8945 162.664L26.2241 118.409C25.2061 116.986 24.9554 115.134 25.561 113.466L51.0217 43.334C51.6273 41.666 53.0077 40.4061 54.7012 39.9679L107.38 26.3389Z"
                fill="#E7B400" stroke="#111111" stroke-width="1.09884" />
            <mask id="mask0_53_150" style="mask-type:alpha" maskUnits="userSpaceOnUse" x="13" y="19" width="138"
                height="151">
                <path
                    d="M104.234 19.8671C107.683 18.9747 111.301 20.2882 113.374 23.1854L149.727 73.9836C150.852 75.5555 151.126 77.5977 150.46 79.4338L124.999 149.565C124.332 151.402 122.812 152.792 120.941 153.276L60.4657 168.922C57.017 169.814 53.3989 168.501 51.3256 165.604L14.9729 114.805C13.8482 113.234 13.5736 111.191 14.2402 109.356L39.7009 39.2237C40.3675 37.3877 41.8882 35.9972 43.7592 35.5132L104.234 19.8671Z"
                    fill="white" />
            </mask>
            <g mask="url(#mask0_53_150)">
                <path
                    d="M104.234 19.8671C107.683 18.9747 111.301 20.2882 113.374 23.1854L149.727 73.9836C150.852 75.5555 151.126 77.5977 150.46 79.4338L124.999 149.565C124.332 151.402 122.812 152.792 120.941 153.276L60.4657 168.922C57.017 169.814 53.3989 168.501 51.3256 165.604L14.9729 114.805C13.8482 113.234 13.5736 111.191 14.2402 109.356L39.7009 39.2237C40.3675 37.3877 41.8882 35.9972 43.7592 35.5132L104.234 19.8671Z"
                    fill="white" />
                <path
                    d="M43.7592 35.5132L44.0344 36.577L43.7592 35.5132ZM14.9729 114.805L15.8664 114.166L14.9729 114.805ZM60.4657 168.922L60.7409 169.986L60.4657 168.922ZM51.3255 165.604L50.432 166.243L51.3255 165.604ZM120.941 153.276L121.216 154.34L120.941 153.276ZM149.727 73.9836L150.62 73.3446L149.727 73.9836ZM113.374 23.1854L114.268 22.5459L113.374 23.1854ZM104.234 19.8671L103.959 18.8033L104.234 19.8671ZM112.481 23.8248L148.834 74.6232L150.62 73.3446L114.268 22.5459L112.481 23.8248ZM149.427 79.0586L123.966 149.191L126.032 149.941L151.493 79.8086L149.427 79.0586ZM120.665 152.212L60.1904 167.858L60.7409 169.986L121.216 154.34L120.665 152.212ZM52.2192 164.965L15.8664 114.166L14.0792 115.445L50.432 166.243L52.2192 164.965ZM15.273 109.73L40.7337 39.5987L38.668 38.8487L13.2073 108.98L15.273 109.73ZM44.0344 36.577L104.509 20.9309L103.959 18.8033L43.484 34.4494L44.0344 36.577ZM40.7337 39.5987C41.2783 38.0987 42.5185 36.9692 44.0344 36.577L43.484 34.4494C41.2578 35.0253 39.4566 36.6766 38.668 38.8487L40.7337 39.5987ZM15.8664 114.166C14.9552 112.892 14.7284 111.23 15.273 109.73L13.2073 108.98C12.4187 111.153 12.741 113.575 14.0792 115.445L15.8664 114.166ZM60.1904 167.858C57.1812 168.637 54.028 167.492 52.2192 164.965L50.432 166.243C52.7697 169.51 56.8521 170.992 60.7409 169.986L60.1904 167.858ZM123.966 149.191C123.421 150.691 122.181 151.82 120.665 152.212L121.216 154.34C123.442 153.764 125.243 152.113 126.032 149.941L123.966 149.191ZM148.834 74.6232C149.745 75.8967 149.971 77.5587 149.427 79.0586L151.493 79.8086C152.281 77.6367 151.959 75.2143 150.62 73.3446L148.834 74.6232ZM114.268 22.5459C111.93 19.2792 107.848 17.7972 103.959 18.8033L104.509 20.9309C107.518 20.1524 110.672 21.2971 112.481 23.8248L114.268 22.5459Z"
                    fill="#111111" />
            </g>
        </g>
    </g>
    <g clip-path="url(#clip2_53_150)">
        <g clip-path="url(#clip3_53_150)">
            <path opacity="0.05"
                d="M220.899 84.4112L220.898 84.4102C220.548 84.1901 220.014 84.0506 219.264 84.0749H219.263C209.248 84.3427 199.263 84.6163 189.309 84.895C188.57 84.9194 187.583 85.2032 186.723 85.7021L186.721 85.7034L186.719 85.7046C174.061 92.5302 160.62 99.2438 146.395 105.846L146.391 105.847C145.852 106.082 145.396 106.342 145.047 106.599C144.695 106.859 144.461 107.107 144.352 107.315C141.25 113.352 138.111 119.384 134.936 125.41C134.826 125.618 134.807 125.778 134.837 125.9C134.866 126.02 134.95 126.132 135.106 126.229L135.108 126.231L135.11 126.232C136.13 126.917 137.164 127.6 138.212 128.28C138.233 128.293 138.255 128.308 138.277 128.322C138.649 128.558 139.256 128.942 140.105 128.95C140.106 128.95 140.106 128.95 140.106 128.95H140.178H140.252H140.325H140.399H140.472H140.546H140.62H140.693H140.766H140.84H140.914H140.987H141.061H141.134H141.208H141.282H141.355H141.428H141.502H141.576H141.649H141.723H141.796H141.87H141.944H142.017H142.091H142.164H142.238H142.311H142.385H142.459H144.813H147.169H147.243H147.316H147.39H147.463H147.537H147.611H147.684H147.758H147.832H147.905H147.979H148.052H148.126H148.2H148.274H148.347H148.421H148.495H148.568H148.642H148.715H148.789H148.863H148.937H149.01H149.084H149.158H149.231H149.305H149.379H149.452H149.526H154.248H154.322H154.396H154.47H154.544H154.618H154.692H154.766H154.84H154.914H154.988H155.061H155.135H155.209H155.283H155.357H155.431H155.505H155.579H155.653H155.727H155.801H155.875H155.948H156.023H156.097H156.171H156.244H156.318H156.392H156.467H156.54H156.614H156.688H156.763H156.836H156.91H156.984H157.059H157.132H157.206H157.281H157.355H157.428H157.503H157.577H157.651H157.725H157.799H157.873H157.947H158.021H158.095H158.169H158.243H158.317H158.391H158.466H158.54H158.614H158.688H158.762H158.836H158.91H158.984H159.059H159.133H159.207H159.281H159.355H159.429H159.503H159.578H159.652H159.726H159.8H159.874H159.948H160.023H160.097H160.171H160.245H160.319H160.394H160.468H160.542H160.616H160.691H160.765H160.839H160.913H160.988H161.062H161.136H161.211H161.285H161.359H161.433H161.508H161.582H161.656H161.731H161.805H161.879H161.953H162.028H162.102H162.176H162.251H162.325H162.399H162.474H162.548H162.622H162.697H162.771H162.846H162.92H162.994H163.069H163.143H163.218H163.292H163.366H163.441H163.515H163.59H163.664H163.739H168.516H168.59H168.665H168.74H168.815H168.89H168.965H169.04H169.115H169.189H169.264H169.34H169.414H169.489H169.564H169.639H169.714H169.789H169.864H169.939H170.014H170.089H170.164H170.239H170.314H170.389H170.464H170.539H170.614H170.689H170.764H170.839H170.914H170.989H171.064H171.14H171.214H171.29H171.365H171.44H171.515H171.59H171.665H171.74H171.816H171.891H171.966H172.041H172.116H172.191H172.267H172.342H172.417H172.492H172.567H172.643H172.718H172.793H172.868H172.944H173.019H173.094H173.17H173.245H173.32H175.734H175.81H175.885H175.961H176.036H176.112H176.187H176.263H176.339H176.414H176.49H176.566H176.642H176.717H176.793H176.868H176.944H177.02H177.096H177.171H177.247H177.323H177.398H177.474H177.55H177.626H177.702H177.777H177.853H177.929H178.005H178.081H178.156H178.158C179.138 128.958 180.413 128.704 181.524 128.235C196.212 121.697 210.115 115.051 223.234 108.296C223.673 108.052 224.012 107.783 224.241 107.52C224.473 107.254 224.582 107.006 224.589 106.801C224.589 106.801 224.589 106.801 224.589 106.8L224.749 106.805C224.866 100.361 224.95 93.9082 225 87.447L220.899 84.4112ZM220.899 84.4112C221.303 84.6595 221.912 85.0358 222.42 85.3504C222.674 85.5075 222.902 85.6493 223.067 85.7517L223.262 85.873L223.315 85.9059L223.329 85.9146L223.333 85.9165L223.334 85.9171V85.9174L223.418 85.7814L223.334 85.9174L223.335 85.9181L224.369 86.5501C224.371 86.552 224.373 86.5539 224.375 86.5562C224.388 86.5719 224.407 86.5946 224.431 86.6237C224.478 86.6819 224.541 86.7639 224.603 86.8583C224.733 87.0554 224.84 87.2755 224.84 87.4458L220.899 84.4112Z"
                fill="black" stroke="black" stroke-width="0.32" />
            <path
                d="M159.541 42.3407L159.704 42.2985L159.762 42.1403L160.862 39.1195L166.855 41.2955C167.724 41.611 168.5 42.1847 169.066 42.9749L190.239 72.5616C190.832 73.3901 190.978 74.4691 190.625 75.4406L175.796 116.288C175.443 117.259 174.639 117.993 173.652 118.248L138.43 127.361C137.489 127.604 136.526 127.547 135.657 127.231L129.664 125.056L130.76 122.036L130.818 121.878L130.72 121.741L112.274 95.9651C111.681 95.1366 111.535 94.0579 111.888 93.0864L126.717 52.2392C127.069 51.2677 127.873 50.5338 128.86 50.2786L159.541 42.3407Z"
                fill="#111111" stroke="#111111" stroke-width="0.64" />
            <mask id="mask1_53_150" style="mask-type:alpha" maskUnits="userSpaceOnUse" x="105" y="38" width="80"
                height="88">
                <path
                    d="M157.709 38.5713C159.718 38.0515 161.826 38.8165 163.033 40.5039L184.206 70.0906C184.861 71.0061 185.021 72.1955 184.633 73.265L169.804 114.112C169.415 115.181 168.53 115.991 167.44 116.273L132.217 125.386C130.209 125.906 128.101 125.141 126.894 123.453L105.721 93.8666C105.066 92.951 104.906 91.7616 105.294 90.6925L120.123 49.8452C120.511 48.7758 121.397 47.966 122.487 47.6841L157.709 38.5713Z"
                    fill="white" />
            </mask>
            <g mask="url(#mask1_53_150)">
                <path
                    d="M157.709 38.5713C159.718 38.0515 161.826 38.8165 163.033 40.5039L184.206 70.0906C184.861 71.0061 185.021 72.1955 184.633 73.265L169.804 114.112C169.415 115.181 168.53 115.991 167.44 116.273L132.217 125.386C130.209 125.906 128.101 125.141 126.894 123.453L105.721 93.8666C105.066 92.951 104.906 91.7616 105.294 90.6925L120.123 49.8452C120.511 48.7758 121.397 47.966 122.487 47.6841L157.709 38.5713Z"
                    fill="#E7B400" />
                <path
                    d="M122.487 47.6841L122.647 48.3037L122.487 47.6841ZM105.721 93.8665L106.241 93.4941L105.721 93.8665ZM132.217 125.386L132.378 126.005L132.217 125.386ZM126.894 123.453L126.373 123.826L126.894 123.453ZM167.44 116.273L167.6 116.893L167.44 116.273ZM184.206 70.0905L184.726 69.7184L184.206 70.0905ZM163.033 40.5039L163.554 40.1315L163.033 40.5039ZM157.709 38.5713L157.549 37.9516L157.709 38.5713ZM162.513 40.8764L183.686 70.463L184.726 69.7184L163.554 40.1315L162.513 40.8764ZM184.031 73.0464L169.202 113.894L170.405 114.331L185.235 73.4832L184.031 73.0464ZM167.28 115.653L132.057 124.766L132.378 126.005L167.6 116.893L167.28 115.653ZM127.414 123.081L106.241 93.4941L105.2 94.239L126.373 123.826L127.414 123.081ZM105.896 90.9107L120.725 50.0636L119.522 49.6268L104.692 90.4739L105.896 90.9107ZM122.647 48.3037L157.87 39.1908L157.549 37.9516L122.327 47.0645L122.647 48.3037ZM120.725 50.0636C121.042 49.19 121.764 48.5321 122.647 48.3037L122.327 47.0645C121.03 47.3999 119.981 48.3617 119.522 49.6268L120.725 50.0636ZM106.241 93.4941C105.71 92.7523 105.578 91.7843 105.896 90.9107L104.692 90.4739C104.233 91.7392 104.421 93.1497 105.2 94.239L106.241 93.4941ZM132.057 124.766C130.304 125.22 128.468 124.553 127.414 123.081L126.373 123.826C127.735 125.728 130.113 126.592 132.378 126.005L132.057 124.766ZM169.202 113.894C168.885 114.767 168.163 115.425 167.28 115.653L167.6 116.893C168.897 116.557 169.946 115.596 170.405 114.331L169.202 113.894ZM183.686 70.463C184.216 71.2048 184.348 72.1728 184.031 73.0464L185.235 73.4832C185.694 72.2182 185.506 70.8073 184.726 69.7184L183.686 70.463ZM163.554 40.1315C162.192 38.2289 159.814 37.3657 157.549 37.9516L157.87 39.1908C159.622 38.7374 161.459 39.4041 162.513 40.8764L163.554 40.1315Z"
                    fill="#111111" />
            </g>
        </g>
    </g>
    <defs>
        <clipPath id="clip0_53_150">
            <rect width="219.767" height="189" fill="white" />
        </clipPath>
        <clipPath id="clip1_53_150">
            <rect width="219.767" height="189" fill="white" />
        </clipPath>
        <clipPath id="clip2_53_150">
            <rect width="128" height="110.08" fill="white" transform="translate(97 27)" />
        </clipPath>
        <clipPath id="clip3_53_150">
            <rect width="128" height="110.08" fill="white" transform="translate(97 27)" />
        </clipPath>
    </defs>
</svg>